<?xml version="1.0" encoding="utf-8"?>
<!-- Generator: Adobe Illustrator 25.2.1, SVG Export Plug-In . SVG Version: 6.00 Build 0)  -->
<svg version="1.1" id="레이어_1" xmlns="http://www.w3.org/2000/svg" xmlns:xlink="http://www.w3.org/1999/xlink" x="0px"
	 y="0px" viewBox="0 0 38 36" style="enable-background:new 0 0 38 36;" xml:space="preserve">
<style type="text/css">
	.st0{fill:#FFFFFF;}
</style>
<g>
	<path class="st0" d="M9.1,14c0,0,1.3,6.6,10.1,11.9c0,0,1.9-3,5-2l5.9,2c0,0,3.4,1.3,1.4,4.8c-1.9,3.5-3.7,3.9-3.7,3.9
		s-4.4,2.7-12.2-1.8C8.4,28.5-2.1,15.7,0.7,6.1C1.1,4.6,2,3.4,3.2,2.5c1.6-1.2,4.2-2.6,6-1.3c0.7,0.5,1.1,1.2,1.2,1.9l1.4,6.4
		C11.9,9.5,12.9,11.9,9.1,14z"/>
	<g>
		<path class="st0" d="M30.7,1.8h-8.3c-3.9,0-7,3.2-7,7v0.3c0,3.9,3.2,7,7,7h1.9c0.6,0,1.1-0.5,1.1-1.1c0-0.6-0.5-1.1-1.1-1.1h-1.9
			c-2.6,0-4.8-2.2-4.8-4.8V8.9c0-2.6,2.2-4.8,4.8-4.8h8.3c2.6,0,4.8,2.2,4.8,4.8v0.3c0,2.6-2.2,4.8-4.8,4.8h-1.2c0,0,0,0-0.1,0
			c0,0-0.1,0-0.1,0c0,0-0.1,0-0.1,0c0,0-0.1,0-0.1,0c0,0-0.1,0-0.1,0c0,0-0.1,0-0.1,0.1c0,0-0.1,0-0.1,0.1c0,0,0,0-0.1,0L25,17.8
			c-0.5,0.4-0.5,1.1-0.1,1.6c0.2,0.2,0.5,0.4,0.8,0.4c0.3,0,0.6-0.1,0.8-0.3l3.5-3.2h0.7c3.9,0,7-3.2,7-7V8.9
			C37.8,5,34.6,1.8,30.7,1.8z"/>
		<path class="st0" d="M20.5,9c0,0.7,0.6,1.2,1.2,1.2c0.7,0,1.2-0.6,1.2-1.2c0-0.7-0.6-1.2-1.2-1.2C21,7.8,20.5,8.3,20.5,9z"/>
		<path class="st0" d="M27.8,9c0-0.7-0.6-1.2-1.2-1.2c-0.7,0-1.2,0.6-1.2,1.2c0,0.7,0.6,1.2,1.2,1.2C27.3,10.2,27.8,9.7,27.8,9z"/>
		<path class="st0" d="M32.7,9c0-0.7-0.6-1.2-1.2-1.2c-0.7,0-1.2,0.6-1.2,1.2c0,0.7,0.6,1.2,1.2,1.2C32.2,10.2,32.7,9.7,32.7,9z"/>
	</g>
</g>
</svg>
