<?xml version="1.0" encoding="utf-8"?>
<!-- Generator: Adobe Illustrator 25.2.1, SVG Export Plug-In . SVG Version: 6.00 Build 0)  -->
<svg version="1.1" id="레이어_1" xmlns="http://www.w3.org/2000/svg" xmlns:xlink="http://www.w3.org/1999/xlink" x="0px"
	 y="0px" viewBox="0 0 498 99" style="enable-background:new 0 0 498 99;" xml:space="preserve">
<style type="text/css">
	.st0{fill:#67A8B1;}
	.st1{fill:#585757;}
</style>
<g>
	<g>
		<path class="st0" d="M56.8,56.1l-3.2,1.6c1.6,2.7,2.3,5.1,2.7,7c0.2,1.9,0.2,2.4,0.2,3.9c0,7.2-5.9,13-13,13H20.7v7.9h23.8
			c8-0.5,12.8-4.2,15.7-7.9c3.1-4.1,3.9-8.2,3.9-8.2c2.7-12.9-3.7-19.2-3.7-19.2L56.8,56.1z"/>
		<path class="st0" d="M26.9,40.9l-16.6-8.5l-2.1-1.1l-0.4-0.1l-0.5-0.3L5,29.7c-1.8-0.8-2.7,0-2.7,0c-1,0.8-1,2.5-1,2.5v1v3.1v26.7
			v1.2V69v1.7v2.4h7.9v-2.4v-6.4v-4.8v-3.8v-6.1v-4.2v-0.3v-0.5v-1.4v-0.3v-0.2v-0.2c0-0.3,0.1-0.9,0.5-1c0,0,0.4-0.2,1.2,0.2
			l1.5,0.7l0.4,0.2l1.3,0.7l0.9,0.5l5.4,2.7l7.1,3.6l0.9,0.4v-1v-6.4v-1.5L26.9,40.9z"/>
		<path class="st0" d="M80.7,29.7c0,0-0.8-0.7-2.4-0.1L42.5,47.8c0,0-0.6,0.4-0.9,0.4c-0.3,0-0.9-0.3-0.9-0.3l-7.5-3.8v5.6v2.9v0.4
			l5.3,2.7c0.9,0.5,1.8,0.8,3.1,1c0.5,0.1,1-0.1,1.5-0.2c0.4-0.1,0.7-0.3,1-0.5l0.5-0.2l5.8-3l5-2.5l0,0l9.9-5l2.6-1.3l0.9-0.5
			l1.1-0.5l0.3-0.1l0.4-0.2l1.5-0.7c0.8-0.4,1.2-0.2,1.2-0.2c0.4,0.2,0.5,0.7,0.5,1v0.2v0.2v0.3v1.4v0.5v0.3v3.1v1v1.7v4.4v3.8v4.8
			v6.4v2.4h7.9v-2.4V69v-4.7v-1.2V51.3v-2.8V36.9v-0.4v-3.1v-1C81.7,32.3,81.7,30.6,80.7,29.7z"/>
		<path class="st0" d="M64.5,28.9c-0.1-0.3-0.1-0.5-0.1-0.7c0-0.1,0-0.3,0-0.3C63.6,17.7,55,9.4,44.4,9.4h-9.3h-6.4h-2.9
			c-2.8,0-5.2,2.3-5.2,5.2v2.6v3.5v10.4v6.5v8.9v3v6.1v4V63v11.5h2.8H24c0.8,0,2.3-0.1,3.4-0.5c1.2-0.5,1.3-2.1,1.3-2.3v0v-3.5v-0.3
			v-4.1v-4.1v-4v-0.9v-4.2v-8.9v-2.1v-8.5V20.7v-3.5h6.2h8.7c6.9,0,12.6,5.4,12.9,12.3c0.1,0.5,0,1,0,1.6c-0.3,7.9-5,11.9-7.5,13.3
			l15.3-7.8C64.6,33.7,64.5,30.4,64.5,28.9z"/>
	</g>
	<g>
		<g>
			<g>
				<path class="st1" d="M105.4,34.9V36h-2V23.5h2.1v4.3c0.1-0.2,0.3-0.4,0.5-0.5c0.2-0.1,0.4-0.3,0.7-0.3c0.2-0.1,0.4-0.1,0.7-0.2
					c0.2,0,0.4,0,0.6,0c0.6,0,1.1,0.1,1.5,0.3c0.4,0.2,0.8,0.4,1.1,0.8c0.3,0.3,0.5,0.7,0.7,1.2c0.1,0.5,0.2,1,0.2,1.6v1.6
					c0,0.6-0.1,1.2-0.3,1.7c-0.2,0.5-0.4,0.9-0.7,1.2c-0.3,0.3-0.7,0.6-1.1,0.8c-0.4,0.2-0.9,0.3-1.5,0.3c-0.6,0-1.1-0.1-1.5-0.3
					C106,35.5,105.7,35.2,105.4,34.9L105.4,34.9z M109.5,30.9c0-0.8-0.1-1.4-0.4-1.8c-0.3-0.4-0.8-0.6-1.4-0.6
					c-0.7,0-1.2,0.2-1.6,0.6c-0.4,0.4-0.5,0.9-0.5,1.5v1.9c0,0.2,0.1,0.4,0.2,0.6c0.1,0.2,0.3,0.4,0.4,0.6c0.2,0.2,0.4,0.3,0.7,0.4
					c0.3,0.1,0.6,0.2,0.9,0.2c0.6,0,1.1-0.2,1.4-0.6c0.3-0.4,0.5-1,0.5-1.8V30.9z"/>
				<path class="st1" d="M116.1,36.1c-1,0-1.7-0.2-2.3-0.7c-0.5-0.4-0.8-1.1-0.8-1.9V33c0-0.4,0.1-0.7,0.2-1
					c0.1-0.3,0.3-0.6,0.6-0.8c0.3-0.2,0.6-0.4,1.1-0.5c0.4-0.1,1-0.2,1.6-0.2h2.1v-0.3c0-0.6-0.1-1-0.4-1.2
					c-0.3-0.2-0.7-0.4-1.2-0.4c-0.9,0-1.8,0.3-2.6,0.9l-1-1.5c0.5-0.3,1-0.6,1.6-0.8c0.6-0.2,1.3-0.4,2-0.4c0.5,0,1,0.1,1.5,0.2
					c0.4,0.1,0.8,0.3,1.2,0.6c0.3,0.2,0.6,0.5,0.8,0.9c0.2,0.4,0.3,0.8,0.3,1.2V36h-1.9l0-1.1c-0.1,0.2-0.2,0.4-0.4,0.5
					c-0.2,0.2-0.4,0.3-0.6,0.4s-0.5,0.2-0.8,0.2C116.6,36.1,116.4,36.1,116.1,36.1z M118.5,32.1h-2c-0.5,0-0.9,0.1-1.1,0.3
					c-0.2,0.2-0.3,0.5-0.3,0.8v0.2c0,0.3,0.1,0.5,0.3,0.7c0.2,0.2,0.5,0.2,0.9,0.2c0.8,0,1.5-0.2,1.9-0.6c0.2-0.2,0.3-0.4,0.3-0.6
					c0-0.2,0-0.5,0-0.8V32.1z"/>
				<path class="st1" d="M128.2,28.8c-0.2-0.1-0.3-0.1-0.5-0.1c-0.2,0-0.4,0-0.7,0c-0.3,0-0.6,0-0.8,0.1c-0.2,0.1-0.5,0.2-0.6,0.4
					c-0.2,0.2-0.3,0.4-0.4,0.6c-0.1,0.2-0.2,0.5-0.2,0.8V36h-2.1v-9.1h2v1.3h0c0.2-0.5,0.6-0.8,1-1.1c0.4-0.3,0.9-0.4,1.6-0.4
					c0.2,0,0.5,0,0.7,0c0.2,0,0.4,0.1,0.6,0.1L128.2,28.8z"/>
				<path class="st1" d="M133.2,36.1c-1,0-1.7-0.3-2.3-0.8c-0.6-0.6-0.9-1.4-0.9-2.5v-5.9h2.1v5.4c0,0.4,0,0.7,0.1,1
					c0.1,0.3,0.2,0.5,0.4,0.6c0.2,0.1,0.3,0.3,0.5,0.3c0.2,0.1,0.4,0.1,0.7,0.1c0.2,0,0.4,0,0.6-0.1c0.2-0.1,0.4-0.2,0.6-0.3
					c0.2-0.2,0.3-0.4,0.5-0.7c0.1-0.3,0.2-0.6,0.2-1v-5.3h2.1V36h-2v-1.1h0c-0.1,0.2-0.3,0.4-0.5,0.6c-0.2,0.2-0.4,0.3-0.6,0.4
					c-0.2,0.1-0.5,0.2-0.7,0.2C133.7,36.1,133.5,36.1,133.2,36.1z"/>
				<path class="st1" d="M145,26.7c0.4,0,0.8,0.1,1.2,0.2c0.4,0.1,0.7,0.3,1,0.6c0.3,0.3,0.5,0.6,0.7,1c0.2,0.4,0.3,0.9,0.3,1.5V36
					h-2.1v-5.5c0-1.3-0.6-2-1.7-2c-0.2,0-0.4,0-0.6,0.1c-0.2,0-0.4,0.1-0.6,0.3c-0.2,0.1-0.4,0.4-0.5,0.6c-0.1,0.3-0.2,0.6-0.2,1.1
					V36h-2.1v-9.1h2v1h0c0.3-0.5,0.7-0.8,1.2-1C144,26.8,144.5,26.7,145,26.7z"/>
				<path class="st1" d="M160.3,26.7c0.4,0,0.8,0.1,1.2,0.2c0.4,0.1,0.7,0.4,1,0.6c0.3,0.3,0.5,0.6,0.7,1.1c0.2,0.4,0.3,0.9,0.3,1.5
					V36h-2.1v-5.4c0-0.4,0-0.7-0.1-1c-0.1-0.3-0.2-0.5-0.4-0.6c-0.2-0.1-0.3-0.2-0.5-0.3c-0.2-0.1-0.4-0.1-0.6-0.1
					c-0.2,0-0.4,0-0.6,0.1c-0.2,0.1-0.4,0.2-0.5,0.3c-0.2,0.1-0.3,0.3-0.4,0.6c-0.1,0.3-0.1,0.6-0.1,0.9V36h-2.1v-5.4
					c0-0.4,0-0.7-0.1-1c-0.1-0.3-0.2-0.5-0.4-0.6c-0.1-0.2-0.3-0.3-0.5-0.3c-0.2-0.1-0.4-0.1-0.6-0.1c-0.5,0-0.9,0.2-1.2,0.5
					c-0.3,0.3-0.5,0.8-0.5,1.4V36h-2.1v-9.1h2V28h0c0.2-0.4,0.5-0.7,1-1c0.4-0.2,0.9-0.4,1.5-0.4c0.6,0,1.1,0.1,1.5,0.4
					c0.4,0.3,0.7,0.6,0.9,1c0.3-0.5,0.7-0.8,1.1-1C159,26.8,159.6,26.7,160.3,26.7z"/>
				<path class="st1" d="M165.8,23.3h2.2v2.2h-2.2V23.3z M165.8,26.9h2.1V36h-2.1V26.9z"/>
			</g>
			<g>
				<g>
					<path class="st1" d="M181.8,24.1v1.7h-5.5V29h5.2v1.7h-5.2v3.5h5.7V36h-7.7V24.1H181.8z"/>
					<path class="st1" d="M184.2,24.1h2.4l4,7.2c0.1,0.2,0.3,0.5,0.4,0.8c0.1,0.3,0.3,0.7,0.4,1.1v-9.1h2V36H191l-4.1-7.2
						c-0.2-0.3-0.3-0.5-0.4-0.9c-0.1-0.3-0.2-0.6-0.3-1v9h-2V24.1z"/>
					<path class="st1" d="M203.9,24.1v1.8h-3.5V36h-2.1V25.9h-3.5v-1.8H203.9z"/>
				</g>
				<g>
					<path class="st1" d="M213.9,35.9c-0.5,0-1-0.1-1.4-0.3c-0.4-0.2-0.7-0.4-1-0.8v4.4h-2.1V26.7h2v1c0.2-0.2,0.3-0.4,0.5-0.6
						c0.2-0.2,0.4-0.3,0.6-0.4c0.2-0.1,0.5-0.2,0.7-0.2c0.2,0,0.5-0.1,0.7-0.1c0.6,0,1.1,0.1,1.6,0.3c0.4,0.2,0.8,0.4,1.1,0.8
						c0.3,0.3,0.5,0.7,0.7,1.2c0.1,0.5,0.2,1,0.2,1.6V32c0,0.6-0.1,1.2-0.3,1.6c-0.2,0.5-0.4,0.9-0.7,1.2c-0.3,0.3-0.7,0.6-1.2,0.8
						C214.9,35.8,214.4,35.9,213.9,35.9z M215.5,30.7c0-0.8-0.1-1.4-0.4-1.8c-0.3-0.4-0.8-0.6-1.4-0.6c-0.7,0-1.2,0.2-1.6,0.6
						c-0.4,0.4-0.5,0.9-0.5,1.5v1.9c0,0.2,0.1,0.4,0.2,0.6c0.1,0.2,0.3,0.4,0.4,0.6c0.2,0.2,0.4,0.3,0.7,0.4
						c0.3,0.1,0.6,0.2,0.9,0.2c0.6,0,1.1-0.2,1.4-0.6c0.3-0.4,0.5-1,0.5-1.8V30.7z"/>
					<path class="st1" d="M219.5,23.4h2.1v12.4h-2.1V23.4z"/>
					<path class="st1" d="M226.7,35.9c-1,0-1.7-0.2-2.3-0.7c-0.5-0.4-0.8-1.1-0.8-1.9v-0.5c0-0.4,0.1-0.7,0.2-1
						c0.1-0.3,0.3-0.6,0.6-0.8c0.3-0.2,0.6-0.4,1.1-0.5c0.4-0.1,1-0.2,1.6-0.2h2.1v-0.3c0-0.6-0.1-1-0.4-1.2
						c-0.3-0.2-0.7-0.4-1.2-0.4c-0.9,0-1.8,0.3-2.6,0.9l-1-1.5c0.5-0.3,1-0.6,1.6-0.8c0.6-0.2,1.3-0.4,2-0.4c0.5,0,1,0.1,1.5,0.2
						c0.4,0.1,0.8,0.3,1.2,0.6c0.3,0.2,0.6,0.5,0.8,0.9c0.2,0.4,0.3,0.8,0.3,1.2v6.4h-1.9l0-1.1c-0.1,0.2-0.2,0.4-0.4,0.5
						c-0.2,0.2-0.4,0.3-0.6,0.4c-0.2,0.1-0.5,0.2-0.8,0.2C227.2,35.9,226.9,35.9,226.7,35.9z M229.1,31.9h-2c-0.5,0-0.9,0.1-1.1,0.3
						c-0.2,0.2-0.3,0.5-0.3,0.8v0.2c0,0.3,0.1,0.5,0.3,0.7c0.2,0.2,0.5,0.2,0.9,0.2c0.8,0,1.5-0.2,1.9-0.6c0.2-0.2,0.3-0.4,0.3-0.6
						c0-0.2,0.1-0.5,0.1-0.8V31.9z"/>
					<path class="st1" d="M236.5,34.2c0.5,0,0.8-0.1,1.1-0.2c0.3-0.1,0.4-0.4,0.4-0.7v-0.1c0-0.2,0-0.3-0.1-0.4
						c0-0.1-0.1-0.2-0.3-0.3c-0.1-0.1-0.3-0.1-0.6-0.2c-0.2-0.1-0.6-0.1-1-0.2c-0.5-0.1-1-0.2-1.4-0.4c-0.4-0.1-0.7-0.3-1-0.6
						c-0.2-0.2-0.4-0.5-0.5-0.8c-0.1-0.3-0.2-0.7-0.2-1.1v-0.2c0-0.3,0.1-0.6,0.2-0.9c0.1-0.3,0.3-0.6,0.6-0.8
						c0.3-0.2,0.6-0.4,1.1-0.6c0.4-0.1,1-0.2,1.6-0.2c0.5,0,1.1,0,1.7,0.1c0.6,0.1,1.1,0.3,1.7,0.7l-0.9,1.5c-0.3-0.2-0.6-0.4-1-0.4
						c-0.4-0.1-0.8-0.1-1.2-0.1c-0.6,0-1.1,0.1-1.3,0.2c-0.2,0.1-0.4,0.3-0.4,0.6v0.1c0,0.2,0,0.3,0.1,0.4c0,0.1,0.1,0.2,0.2,0.3
						c0.1,0.1,0.3,0.1,0.5,0.2c0.2,0.1,0.5,0.1,0.9,0.2c0.6,0.1,1.1,0.2,1.5,0.4c0.4,0.1,0.8,0.3,1,0.5c0.3,0.2,0.5,0.5,0.6,0.8
						c0.1,0.3,0.2,0.7,0.2,1.2v0.2c0,0.4-0.1,0.7-0.2,1c-0.2,0.3-0.4,0.6-0.7,0.8c-0.3,0.2-0.7,0.4-1.1,0.6c-0.4,0.1-1,0.2-1.5,0.2
						c-0.8,0-1.5-0.1-2.1-0.3c-0.7-0.2-1.2-0.5-1.7-0.8l0.9-1.6c0.4,0.3,0.8,0.5,1.3,0.7C235.4,34.1,235.9,34.2,236.5,34.2z"/>
					<path class="st1" d="M242.5,28.4H241v-1.7h1.4v-2.3h2.1v2.3h2.3v1.7h-2.3v4.8c0,0.4,0.1,0.6,0.2,0.8c0.2,0.1,0.4,0.2,0.6,0.2
						c0.2,0,0.4,0,0.6-0.1c0.2,0,0.4-0.1,0.7-0.2l0.3,1.7c-0.2,0.1-0.4,0.2-0.8,0.3c-0.3,0.1-0.7,0.1-1.1,0.1
						c-0.5,0-0.9-0.1-1.3-0.2c-0.4-0.1-0.6-0.3-0.8-0.5c-0.2-0.2-0.4-0.5-0.4-0.8c-0.1-0.3-0.1-0.7-0.1-1.1V28.4z"/>
					<path class="st1" d="M248.7,23.2h2.2v2.2h-2.2V23.2z M248.7,26.7h2.1v9.1h-2.1V26.7z"/>
					<path class="st1" d="M256.9,26.5c0.4,0,0.8,0,1.1,0.1c0.3,0.1,0.6,0.1,0.9,0.2c0.3,0.1,0.5,0.2,0.7,0.3
						c0.2,0.1,0.4,0.3,0.6,0.4l-1,1.5c-0.4-0.3-0.7-0.5-1.1-0.6c-0.4-0.1-0.8-0.2-1.2-0.2c-0.3,0-0.5,0-0.8,0.1
						c-0.2,0.1-0.5,0.2-0.6,0.4c-0.2,0.2-0.3,0.4-0.4,0.7c-0.1,0.3-0.2,0.6-0.2,1.1v1.1c0,0.5,0.1,0.8,0.2,1.2
						c0.1,0.3,0.3,0.6,0.5,0.7c0.2,0.2,0.4,0.3,0.7,0.4c0.2,0.1,0.5,0.1,0.7,0.1c0.6,0,1-0.1,1.4-0.2c0.4-0.1,0.7-0.3,1-0.6l1,1.5
						c-0.3,0.3-0.8,0.5-1.3,0.8c-0.6,0.2-1.3,0.3-2.1,0.3c-1.3,0-2.4-0.4-3.1-1.1c-0.7-0.7-1.1-1.8-1.1-3v-1.1c0-1.3,0.4-2.3,1.1-3
						C254.7,26.9,255.7,26.5,256.9,26.5z"/>
					<path class="st1" d="M269.1,34.2c0.5,0,0.8-0.1,1.1-0.2c0.3-0.1,0.4-0.4,0.4-0.7v-0.1c0-0.2,0-0.3-0.1-0.4
						c0-0.1-0.1-0.2-0.3-0.3s-0.3-0.1-0.6-0.2c-0.2-0.1-0.6-0.1-1-0.2c-0.5-0.1-1-0.2-1.4-0.4s-0.7-0.3-1-0.6
						c-0.2-0.2-0.4-0.5-0.5-0.8c-0.1-0.3-0.2-0.7-0.2-1.1v-0.2c0-0.3,0.1-0.6,0.2-0.9c0.1-0.3,0.3-0.6,0.6-0.8
						c0.3-0.2,0.6-0.4,1.1-0.6c0.4-0.1,1-0.2,1.6-0.2c0.5,0,1.1,0,1.7,0.1c0.6,0.1,1.1,0.3,1.7,0.7l-0.9,1.5c-0.3-0.2-0.6-0.4-1-0.4
						c-0.4-0.1-0.8-0.1-1.2-0.1c-0.6,0-1.1,0.1-1.3,0.2c-0.2,0.1-0.4,0.3-0.4,0.6v0.1c0,0.2,0,0.3,0.1,0.4c0,0.1,0.1,0.2,0.2,0.3
						c0.1,0.1,0.3,0.1,0.5,0.2c0.2,0.1,0.5,0.1,0.9,0.2c0.6,0.1,1.1,0.2,1.5,0.4c0.4,0.1,0.8,0.3,1,0.5c0.3,0.2,0.5,0.5,0.6,0.8
						c0.1,0.3,0.2,0.7,0.2,1.2v0.2c0,0.4-0.1,0.7-0.2,1c-0.2,0.3-0.4,0.6-0.7,0.8c-0.3,0.2-0.7,0.4-1.1,0.6c-0.4,0.1-1,0.2-1.5,0.2
						c-0.8,0-1.5-0.1-2.1-0.3c-0.7-0.2-1.2-0.5-1.7-0.8l0.9-1.6c0.4,0.3,0.8,0.5,1.3,0.7C268,34.1,268.5,34.2,269.1,34.2z"/>
					<path class="st1" d="M277.6,35.9c-1,0-1.7-0.3-2.3-0.8c-0.6-0.6-0.9-1.4-0.9-2.5v-5.9h2.1v5.4c0,0.4,0,0.7,0.1,1
						c0.1,0.3,0.2,0.5,0.4,0.6c0.2,0.1,0.3,0.3,0.5,0.3c0.2,0.1,0.4,0.1,0.7,0.1c0.2,0,0.4,0,0.6-0.1c0.2-0.1,0.4-0.2,0.6-0.3
						c0.2-0.2,0.3-0.4,0.5-0.7c0.1-0.3,0.2-0.6,0.2-1v-5.3h2.1v9.1h-2v-1.1h0c-0.1,0.2-0.3,0.4-0.5,0.6c-0.2,0.2-0.4,0.3-0.6,0.4
						c-0.2,0.1-0.5,0.2-0.7,0.2C278.1,35.9,277.8,35.9,277.6,35.9z"/>
					<path class="st1" d="M289.9,28.6c-0.2-0.1-0.3-0.1-0.5-0.1c-0.2,0-0.4,0-0.7,0c-0.3,0-0.6,0-0.8,0.1c-0.2,0.1-0.5,0.2-0.6,0.4
						c-0.2,0.2-0.3,0.4-0.4,0.6c-0.1,0.2-0.2,0.5-0.2,0.8v5.4h-2.1v-9.1h2V28h0c0.2-0.5,0.6-0.8,1-1.1c0.4-0.3,0.9-0.4,1.6-0.4
						c0.2,0,0.5,0,0.7,0c0.2,0,0.4,0.1,0.6,0.1L289.9,28.6z"/>
					<path class="st1" d="M297.4,34.6L297.4,34.6c-0.3,0.4-0.6,0.7-1.1,0.9c-0.4,0.2-0.9,0.3-1.5,0.3c-1.2,0-2-0.3-2.6-1
						c-0.6-0.7-0.9-1.6-0.9-2.9v-1.4c0-0.6,0.1-1.1,0.3-1.6c0.2-0.5,0.4-0.9,0.7-1.2c0.3-0.3,0.7-0.6,1.1-0.8
						c0.4-0.2,0.9-0.3,1.5-0.3c0.4,0,0.7,0,0.9,0.1c0.3,0.1,0.5,0.1,0.7,0.2c0.2,0.1,0.4,0.2,0.5,0.3c0.1,0.1,0.2,0.2,0.3,0.3h0
						v-0.8h2v9c0,1.3-0.3,2.2-1,2.8c-0.7,0.6-1.8,0.9-3.3,0.9c-0.6,0-1.1-0.1-1.7-0.3c-0.6-0.2-1-0.4-1.4-0.7l0.9-1.6
						c0.1,0.1,0.2,0.2,0.4,0.3c0.2,0.1,0.3,0.2,0.5,0.3c0.2,0.1,0.4,0.1,0.6,0.2c0.2,0,0.4,0.1,0.7,0.1c0.7,0,1.3-0.2,1.7-0.5
						c0.4-0.3,0.6-0.8,0.6-1.5V34.6z M293.4,31.6c0,0.8,0.2,1.4,0.5,1.8s0.8,0.6,1.4,0.6c0.3,0,0.6-0.1,0.9-0.2
						c0.3-0.1,0.5-0.3,0.7-0.5c0.2-0.2,0.3-0.4,0.4-0.7c0.1-0.3,0.1-0.6,0.1-0.9v-1.7c0-0.2,0-0.4-0.1-0.6c-0.1-0.2-0.2-0.4-0.4-0.6
						c-0.2-0.2-0.4-0.3-0.6-0.4c-0.3-0.1-0.6-0.2-0.9-0.2c-0.7,0-1.1,0.2-1.5,0.6c-0.3,0.4-0.5,1-0.5,1.8V31.6z"/>
					<path class="st1" d="M309.3,34.9c-0.4,0.3-1,0.5-1.5,0.7c-0.6,0.2-1.3,0.3-2.2,0.3c-0.5,0-1-0.1-1.5-0.2
						c-0.5-0.1-0.9-0.4-1.3-0.7c-0.4-0.3-0.7-0.8-0.9-1.3c-0.2-0.5-0.4-1.2-0.4-2v-0.9c0-0.7,0.1-1.4,0.3-1.9c0.2-0.5,0.5-1,0.9-1.3
						c0.4-0.3,0.8-0.6,1.3-0.8c0.5-0.2,1-0.2,1.6-0.2c0.6,0,1.1,0.1,1.6,0.2c0.5,0.2,0.9,0.4,1.3,0.7c0.4,0.3,0.6,0.8,0.8,1.2
						c0.2,0.5,0.3,1.1,0.3,1.7V32h-6.1c0,0.7,0.2,1.3,0.6,1.6c0.4,0.4,0.9,0.6,1.7,0.6c0.5,0,1-0.1,1.4-0.2c0.4-0.1,0.9-0.3,1.3-0.6
						L309.3,34.9z M307.6,30.4V30c0-0.2,0-0.5-0.1-0.7c-0.1-0.2-0.2-0.4-0.4-0.6c-0.2-0.2-0.4-0.3-0.6-0.4c-0.3-0.1-0.6-0.1-0.9-0.1
						c-0.7,0-1.2,0.2-1.6,0.5c-0.3,0.4-0.5,0.8-0.5,1.3v0.3H307.6z"/>
					<path class="st1" d="M316.7,28.6c-0.2-0.1-0.3-0.1-0.5-0.1c-0.2,0-0.4,0-0.7,0c-0.3,0-0.6,0-0.8,0.1c-0.2,0.1-0.5,0.2-0.6,0.4
						c-0.2,0.2-0.3,0.4-0.4,0.6c-0.1,0.2-0.2,0.5-0.2,0.8v5.4h-2.1v-9.1h2V28h0c0.2-0.5,0.6-0.8,1-1.1c0.4-0.3,0.9-0.4,1.6-0.4
						c0.2,0,0.5,0,0.7,0c0.2,0,0.4,0.1,0.6,0.1L316.7,28.6z"/>
					<path class="st1" d="M320.2,26.7l2.1,6.7h0.1l2.1-6.7h2.2l-4.7,12.8l-1.9-0.7l1.2-3l-3.2-9.2H320.2z"/>
					<path class="st1" d="M335.8,26.5c0.4,0,0.8,0,1.1,0.1c0.3,0.1,0.6,0.1,0.9,0.2c0.3,0.1,0.5,0.2,0.7,0.3
						c0.2,0.1,0.4,0.3,0.6,0.4l-1,1.5c-0.4-0.3-0.7-0.5-1.1-0.6c-0.4-0.1-0.8-0.2-1.2-0.2c-0.3,0-0.5,0-0.8,0.1
						c-0.2,0.1-0.5,0.2-0.6,0.4c-0.2,0.2-0.3,0.4-0.4,0.7c-0.1,0.3-0.2,0.6-0.2,1.1v1.1c0,0.5,0.1,0.8,0.2,1.2
						c0.1,0.3,0.3,0.6,0.5,0.7c0.2,0.2,0.4,0.3,0.7,0.4c0.2,0.1,0.5,0.1,0.7,0.1c0.6,0,1-0.1,1.4-0.2c0.4-0.1,0.7-0.3,1-0.6l1,1.5
						c-0.3,0.3-0.8,0.5-1.3,0.8c-0.6,0.2-1.3,0.3-2.1,0.3c-1.3,0-2.4-0.4-3.1-1.1c-0.7-0.7-1.1-1.8-1.1-3v-1.1c0-1.3,0.4-2.3,1.1-3
						C333.6,26.9,334.6,26.5,335.8,26.5z"/>
					<path class="st1" d="M340.9,23.4h2.1v12.4h-2.1V23.4z"/>
					<path class="st1" d="M345.4,23.2h2.2v2.2h-2.2V23.2z M345.5,26.7h2.1v9.1h-2.1V26.7z"/>
					<path class="st1" d="M354.7,26.5c0.4,0,0.8,0.1,1.2,0.2c0.4,0.1,0.7,0.3,1,0.6c0.3,0.3,0.5,0.6,0.7,1c0.2,0.4,0.3,0.9,0.3,1.5
						v5.9h-2.1v-5.5c0-1.3-0.6-2-1.7-2c-0.2,0-0.4,0-0.6,0.1c-0.2,0-0.4,0.1-0.6,0.3c-0.2,0.1-0.4,0.4-0.5,0.6
						c-0.1,0.3-0.2,0.6-0.2,1.1v5.4h-2.1v-9.1h2v1h0c0.3-0.5,0.7-0.8,1.2-1C353.7,26.6,354.2,26.5,354.7,26.5z"/>
					<path class="st1" d="M360.3,23.2h2.2v2.2h-2.2V23.2z M360.3,26.7h2.1v9.1h-2.1V26.7z"/>
					<path class="st1" d="M368.5,26.5c0.4,0,0.8,0,1.1,0.1c0.3,0.1,0.6,0.1,0.9,0.2c0.3,0.1,0.5,0.2,0.7,0.3
						c0.2,0.1,0.4,0.3,0.6,0.4l-1,1.5c-0.4-0.3-0.7-0.5-1.1-0.6c-0.4-0.1-0.8-0.2-1.2-0.2c-0.3,0-0.5,0-0.8,0.1
						c-0.2,0.1-0.5,0.2-0.6,0.4c-0.2,0.2-0.3,0.4-0.4,0.7c-0.1,0.3-0.2,0.6-0.2,1.1v1.1c0,0.5,0.1,0.8,0.2,1.2
						c0.1,0.3,0.3,0.6,0.5,0.7c0.2,0.2,0.4,0.3,0.7,0.4c0.2,0.1,0.5,0.1,0.7,0.1c0.6,0,1-0.1,1.4-0.2s0.7-0.3,1-0.6l1,1.5
						c-0.3,0.3-0.8,0.5-1.3,0.8c-0.6,0.2-1.3,0.3-2.1,0.3c-1.3,0-2.4-0.4-3.1-1.1c-0.7-0.7-1.1-1.8-1.1-3v-1.1c0-1.3,0.4-2.3,1.1-3
						C366.2,26.9,367.2,26.5,368.5,26.5z"/>
				</g>
			</g>
		</g>
		<g>
			<g>
				<path class="st1" d="M115.1,66.3h-11.7V50.2h3.3v5.5h5.2v-5.5h3.3V66.3z M106.7,63.5h5.2v-5h-5.2V63.5z M121.6,56.8h3.3v2.9
					h-3.3v12.9h-3.3V48.2h3.3V56.8z"/>
				<path class="st1" d="M148.3,61.6v2.7h-22.3v-2.7H148.3z M129.2,59.9V53h12.7v-1.6h-12.8v-2.7h16v6.8h-12.7v1.6h13.1v2.7H129.2z
					 M132.5,69.3h13.2v2.8h-16.5v-6.6h3.3V69.3z"/>
				<path class="st1" d="M163.3,50.4v15.9h-11.8V50.4H163.3z M160,53.2h-5.2v10.3h5.2V53.2z M170.4,72.6H167V48.2h3.3V72.6z"/>
				<g>
					<path class="st1" d="M186.3,66.8c-1.1,0-2.1-0.2-2.9-0.5c-0.8-0.3-1.4-0.8-1.9-1.5c-0.5-0.6-0.9-1.4-1.1-2.2
						c-0.2-0.9-0.4-1.8-0.4-2.8v-2.9c0-1,0.1-1.9,0.4-2.8c0.2-0.9,0.6-1.6,1.1-2.2c0.5-0.6,1.2-1.1,1.9-1.5c0.8-0.3,1.7-0.5,2.9-0.5
						c1.1,0,2.1,0.2,2.9,0.5c0.8,0.3,1.4,0.8,1.9,1.5c0.5,0.6,0.9,1.4,1.1,2.2c0.2,0.9,0.4,1.8,0.4,2.8v2.9c0,1-0.1,2-0.4,2.8
						c-0.2,0.9-0.6,1.6-1.1,2.2c-0.5,0.6-1.2,1.1-1.9,1.5C188.4,66.7,187.4,66.8,186.3,66.8z M186.3,52.8c-1.1,0-1.9,0.4-2.4,1.2
						c-0.5,0.8-0.7,1.9-0.7,3.4v2.1c0,1.5,0.2,2.6,0.7,3.4c0.5,0.8,1.3,1.2,2.4,1.2c1.1,0,1.9-0.4,2.4-1.2c0.5-0.8,0.7-1.9,0.7-3.4
						v-2.1c0-1.5-0.2-2.6-0.7-3.4C188.2,53.2,187.4,52.8,186.3,52.8z M199.3,72.6H196V48.2h3.3V72.6z"/>
					<path class="st1" d="M216,66.3h-11.7V50.2h3.3v5.5h5.2v-5.5h3.3V66.3z M207.5,63.5h5.2v-5h-5.2V63.5z M223.1,72.6h-3.3V48.2
						h3.3V72.6z"/>
					<path class="st1" d="M233.5,62c-1,0-1.9-0.2-2.6-0.5c-0.8-0.3-1.4-0.7-2-1.2s-1-1.1-1.2-1.8c-0.3-0.7-0.4-1.4-0.4-2.1v-1.5
						c0-0.7,0.1-1.4,0.4-2.1c0.3-0.7,0.7-1.3,1.2-1.8c0.5-0.5,1.2-0.9,2-1.2c0.8-0.3,1.7-0.5,2.6-0.5c1,0,1.9,0.2,2.6,0.5
						c0.8,0.3,1.4,0.7,2,1.2c0.5,0.5,1,1.1,1.2,1.8c0.3,0.7,0.4,1.4,0.4,2.1v1.5c0,0.7-0.1,1.4-0.4,2.1c-0.3,0.7-0.7,1.3-1.2,1.8
						c-0.5,0.5-1.2,0.9-2,1.2C235.3,61.8,234.4,62,233.5,62z M233.5,52.1c-0.5,0-0.9,0.1-1.3,0.2c-0.4,0.2-0.7,0.4-1,0.7
						c-0.3,0.3-0.5,0.6-0.6,1c-0.1,0.4-0.2,0.7-0.2,1.1v1c0,0.4,0.1,0.8,0.2,1.1c0.1,0.4,0.4,0.7,0.6,1c0.3,0.3,0.6,0.5,1,0.7
						c0.4,0.2,0.8,0.2,1.3,0.2c0.5,0,0.9-0.1,1.3-0.2c0.4-0.2,0.7-0.4,1-0.7c0.3-0.3,0.5-0.6,0.6-1c0.1-0.4,0.2-0.7,0.2-1.1v-1
						c0-0.4-0.1-0.8-0.2-1.1c-0.1-0.4-0.4-0.7-0.6-1c-0.3-0.3-0.6-0.5-1-0.7C234.4,52.2,234,52.1,233.5,52.1z M234.5,69.6H247v2.8
						h-15.9v-8.2h3.3V69.6z M246.7,65.7h-3.3V48.4h3.3V65.7z"/>
					<path class="st1" d="M272.5,64.1v2.8h-9.5V73h-3.3v-6.1h-9.5v-2.8H272.5z M263.1,50.6h7.4v2.8h-18.2v-2.8h7.4v-2.7h3.3V50.6z
						 M261.4,63c-1.1,0-2.1-0.1-3-0.3c-0.9-0.2-1.7-0.4-2.4-0.8c-0.7-0.3-1.2-0.8-1.5-1.3c-0.4-0.5-0.6-1.1-0.6-1.7v-0.8
						c0-0.6,0.2-1.2,0.6-1.7c0.4-0.5,0.9-0.9,1.5-1.2c0.7-0.3,1.4-0.6,2.4-0.8c0.9-0.2,1.9-0.3,3-0.3c1.1,0,2.1,0.1,3,0.3
						c0.9,0.2,1.7,0.4,2.4,0.8c0.7,0.3,1.2,0.8,1.5,1.2c0.4,0.5,0.5,1,0.5,1.7v0.8c0,0.6-0.2,1.2-0.5,1.7c-0.4,0.5-0.9,0.9-1.5,1.3
						c-0.7,0.3-1.4,0.6-2.4,0.8C263.5,62.9,262.5,63,261.4,63z M261.4,56.9c-1.4,0-2.5,0.2-3.2,0.5c-0.7,0.3-1.1,0.7-1.1,1.1v0.4
						c0,0.4,0.4,0.8,1.1,1.1c0.7,0.3,1.8,0.5,3.2,0.5c1.4,0,2.5-0.2,3.2-0.5c0.7-0.3,1.1-0.7,1.1-1.1v-0.4c0-0.4-0.4-0.8-1.1-1.1
						C263.8,57.1,262.8,56.9,261.4,56.9z"/>
					<path class="st1" d="M274.1,64.5h4.1v-7h3.3v6.9c1.7,0,3.2-0.1,4.4-0.1c1.2-0.1,2.3-0.1,3.3-0.2l0.2,2.8
						c-0.7,0.1-1.5,0.2-2.5,0.2c-0.9,0.1-2,0.1-3.3,0.1c-1.2,0-2.6,0.1-4.2,0.1c-1.6,0-3.3,0-5.3,0V64.5z M287.6,50.5v3.8
						c0,0.5,0,1.1,0,1.7c0,0.6,0,1.2-0.1,1.9c0,0.6-0.1,1.3-0.2,1.9c-0.1,0.6-0.2,1.2-0.3,1.8l-3.2-0.4c0.2-1.2,0.4-2.3,0.5-3.5
						c0.1-1.1,0.1-2.1,0.1-3v-1.4h-9.1v-2.9H287.6z M293.6,57h3.4v2.9h-3.4v12.7h-3.3V48.2h3.3V57z"/>
				</g>
			</g>
			<g>
				<g>
					<path class="st1" d="M409.6,57.1c-0.1,0.2-0.2,0.4-0.5,0.7c-0.2,0.3-0.6,0.6-1.2,1.1c-0.6,0.5-1.2,1.1-1.9,1.6
						c-0.7,0.5-1.3,1.1-2.1,1.6l-2-2.4c0.8-0.6,1.5-1.1,2.1-1.6c0.6-0.5,1.3-1,1.9-1.6c0.5-0.5,1-1.1,1.3-1.7
						c0.3-0.6,0.5-1.4,0.5-2.3v-3.7h3.3v3.6c0,0.4,0,0.8,0.1,1.2c0,0.3,0.1,0.7,0.3,1c0.1,0.3,0.3,0.6,0.5,0.9
						c0.2,0.3,0.5,0.5,0.9,0.8c0.5,0.4,1.1,0.9,1.8,1.4c0.7,0.5,1.3,1,2,1.4l-1.8,2.3c-0.6-0.4-1.2-0.8-1.8-1.2
						c-0.6-0.4-1.1-0.8-1.6-1.2c-0.5-0.3-0.9-0.7-1.2-1C409.9,57.6,409.7,57.3,409.6,57.1L409.6,57.1z M414.9,72.9
						c-1.1,0-2.1-0.1-3-0.3c-0.9-0.2-1.7-0.5-2.4-0.9c-0.7-0.4-1.2-0.9-1.6-1.5c-0.4-0.6-0.6-1.2-0.6-2v-1.2c0-0.7,0.2-1.4,0.6-2
						c0.4-0.6,0.9-1.1,1.6-1.5c0.7-0.4,1.5-0.7,2.4-0.9c0.9-0.2,1.9-0.3,3-0.3c1.1,0,2.1,0.1,3,0.3c0.9,0.2,1.7,0.5,2.4,0.9
						c0.7,0.4,1.2,0.9,1.6,1.5c0.4,0.6,0.6,1.2,0.6,2v1.2c0,0.7-0.2,1.4-0.6,2c-0.4,0.6-0.9,1.1-1.6,1.5c-0.7,0.4-1.5,0.7-2.4,0.9
						C417,72.8,416,72.9,414.9,72.9z M414.9,65.1c-0.6,0-1.1,0.1-1.6,0.2c-0.5,0.1-1,0.3-1.4,0.5c-0.4,0.2-0.7,0.4-1,0.7
						c-0.2,0.3-0.4,0.6-0.4,0.9V68c0,0.3,0.1,0.6,0.4,0.9c0.2,0.3,0.6,0.5,1,0.7c0.4,0.2,0.9,0.4,1.4,0.5c0.5,0.1,1.1,0.2,1.6,0.2
						c0.6,0,1.1-0.1,1.6-0.2c0.5-0.1,1-0.3,1.4-0.5c0.4-0.2,0.7-0.4,1-0.7c0.2-0.3,0.4-0.6,0.4-0.9v-0.7c0-0.3-0.1-0.6-0.4-0.9
						c-0.2-0.3-0.6-0.5-1-0.7c-0.4-0.2-0.9-0.4-1.4-0.5C416,65.2,415.5,65.1,414.9,65.1z M419.1,55.6h-4.3v-2.8h4.3v-4.9h3.3v14.4
						h-3.3V55.6z"/>
					<path class="st1" d="M434.7,50.3h5.4v2.8h-14v-2.8h5.3v-2.6h3.3V50.3z M433.1,63c-0.9,0-1.7-0.1-2.4-0.3
						c-0.7-0.2-1.3-0.5-1.8-0.9c-0.5-0.4-0.9-0.8-1.1-1.3c-0.3-0.5-0.4-1-0.4-1.6V58c0-0.6,0.1-1.1,0.4-1.6c0.3-0.5,0.6-0.9,1.1-1.3
						c0.5-0.4,1.1-0.7,1.8-0.9c0.7-0.2,1.5-0.3,2.4-0.3s1.7,0.1,2.4,0.3c0.7,0.2,1.3,0.5,1.8,0.9c0.5,0.4,0.9,0.8,1.1,1.3
						c0.3,0.5,0.4,1,0.4,1.6v0.8c0,0.6-0.1,1.1-0.4,1.6c-0.3,0.5-0.6,0.9-1.1,1.3c-0.5,0.4-1.1,0.7-1.8,0.9
						C434.8,62.9,434,63,433.1,63z M433.1,56.5c-0.9,0-1.5,0.2-2,0.5c-0.4,0.4-0.7,0.8-0.7,1.2v0.5c0,0.4,0.2,0.8,0.7,1.2
						c0.4,0.4,1.1,0.5,2,0.5s1.5-0.2,2-0.5c0.4-0.4,0.7-0.7,0.7-1.2v-0.5c0-0.4-0.2-0.8-0.7-1.2C434.6,56.7,434,56.5,433.1,56.5z
						 M438.7,73.1c-1.2,0-2.2-0.1-3.1-0.3c-0.9-0.2-1.7-0.5-2.4-0.9c-0.7-0.4-1.2-0.8-1.6-1.3c-0.4-0.5-0.5-1.1-0.5-1.7v-0.9
						c0-0.6,0.2-1.2,0.5-1.7c0.4-0.5,0.9-1,1.6-1.3c0.7-0.4,1.5-0.7,2.4-0.9c0.9-0.2,2-0.3,3.1-0.3c1.2,0,2.2,0.1,3.1,0.3
						c0.9,0.2,1.7,0.5,2.4,0.9c0.7,0.4,1.2,0.8,1.6,1.3c0.4,0.5,0.6,1.1,0.6,1.7v0.9c0,0.6-0.2,1.2-0.6,1.7c-0.4,0.5-0.9,1-1.6,1.3
						c-0.7,0.4-1.5,0.6-2.4,0.9C440.9,73,439.8,73.1,438.7,73.1z M438.7,66.4c-0.6,0-1.2,0-1.8,0.1c-0.5,0.1-1,0.2-1.4,0.4
						c-0.4,0.2-0.7,0.3-0.9,0.6c-0.2,0.2-0.3,0.4-0.3,0.7v0.4c0,0.2,0.1,0.5,0.3,0.7c0.2,0.2,0.5,0.4,0.9,0.6
						c0.4,0.2,0.9,0.3,1.4,0.4c0.5,0.1,1.1,0.1,1.8,0.1c0.6,0,1.2,0,1.8-0.1c0.5-0.1,1-0.2,1.4-0.4c0.4-0.2,0.7-0.3,0.9-0.6
						c0.2-0.2,0.3-0.4,0.3-0.7v-0.4c0-0.2-0.1-0.5-0.3-0.7c-0.2-0.2-0.5-0.4-0.9-0.6c-0.4-0.2-0.9-0.3-1.4-0.4
						C439.9,66.5,439.3,66.4,438.7,66.4z M446.2,63.3H443v-2h-3v-2.8h3v-1.8h-3v-2.8h3V48h3.3V63.3z"/>
					<path class="st1" d="M450.3,64.9c1.1,0,2.2,0,3.1,0c1,0,1.9,0,2.8,0v-3.6c-0.8-0.1-1.5-0.4-2.1-0.7c-0.6-0.3-1.1-0.7-1.6-1.2
						c-0.4-0.5-0.8-1-1-1.6c-0.2-0.6-0.4-1.2-0.4-1.8v-1c0-0.7,0.2-1.4,0.5-2.1c0.3-0.7,0.8-1.2,1.3-1.7c0.6-0.5,1.3-0.9,2.1-1.2
						c0.8-0.3,1.7-0.4,2.7-0.4c1,0,1.9,0.1,2.7,0.4c0.8,0.3,1.5,0.7,2.1,1.2c0.6,0.5,1,1.1,1.3,1.7c0.3,0.7,0.5,1.3,0.5,2.1v1
						c0,0.6-0.1,1.2-0.4,1.8c-0.2,0.6-0.6,1.1-1,1.6c-0.4,0.5-0.9,0.9-1.6,1.2c-0.6,0.3-1.3,0.6-2,0.7v3.5c1.4,0,2.6-0.1,3.6-0.1
						c1-0.1,2-0.1,2.8-0.2l0.2,2.8c-0.8,0.1-1.6,0.2-2.6,0.2c-1,0.1-2.1,0.1-3.4,0.1c-1.3,0-2.7,0.1-4.3,0.1c-1.6,0-3.4,0-5.4,0
						V64.9z M457.8,52.4c-0.5,0-1,0.1-1.4,0.2c-0.4,0.2-0.8,0.4-1.1,0.6c-0.3,0.3-0.5,0.6-0.7,0.9c-0.2,0.3-0.2,0.7-0.2,1v0.7
						c0,0.3,0.1,0.7,0.2,1c0.2,0.3,0.4,0.6,0.7,0.9c0.3,0.3,0.7,0.5,1.1,0.6c0.4,0.2,0.9,0.2,1.4,0.2c0.5,0,1-0.1,1.4-0.2
						c0.4-0.2,0.8-0.4,1.1-0.6c0.3-0.3,0.5-0.6,0.7-0.9c0.2-0.3,0.2-0.7,0.2-1v-0.7c0-0.3-0.1-0.7-0.2-1c-0.2-0.3-0.4-0.6-0.7-0.9
						c-0.3-0.3-0.7-0.5-1.1-0.6C458.8,52.5,458.4,52.4,457.8,52.4z M470.4,72.6h-3.3V48.2h3.3V72.6z"/>
					<path class="st1" d="M473.7,64.5h4.1v-7h3.3v6.9c1.7,0,3.2-0.1,4.4-0.1c1.2-0.1,2.3-0.1,3.3-0.2l0.2,2.8
						c-0.7,0.1-1.5,0.2-2.5,0.2c-0.9,0.1-2,0.1-3.3,0.1c-1.2,0-2.6,0.1-4.2,0.1c-1.6,0-3.3,0-5.3,0V64.5z M487.2,50.5v3.8
						c0,0.5,0,1.1,0,1.7c0,0.6,0,1.2-0.1,1.9c0,0.6-0.1,1.3-0.2,1.9c-0.1,0.6-0.2,1.2-0.3,1.8l-3.2-0.4c0.2-1.2,0.4-2.3,0.5-3.5
						c0.1-1.1,0.1-2.1,0.1-3v-1.4h-9.1v-2.9H487.2z M493.2,57h3.4v2.9h-3.4v12.7H490V48.2h3.3V57z"/>
				</g>
				<g>
					<path class="st1" d="M326.9,56.6h9v2h-3.2v1.3c0,0.2,0,0.4,0,0.6c0,0.2,0.1,0.4,0.2,0.5c0.1,0.2,0.2,0.3,0.4,0.5
						c0.2,0.2,0.4,0.4,0.6,0.5c0.4,0.3,0.8,0.6,1.3,0.9c0.5,0.3,0.9,0.6,1.4,0.9l-1.3,1.7c-0.4-0.3-0.8-0.5-1.2-0.8
						c-0.4-0.3-0.8-0.5-1.1-0.8c-0.4-0.3-0.7-0.5-0.9-0.7c-0.2-0.2-0.4-0.4-0.4-0.5h0c0,0.1-0.2,0.3-0.4,0.5c-0.2,0.2-0.6,0.5-1,0.9
						c-0.4,0.3-0.8,0.6-1.2,1c-0.4,0.3-0.9,0.6-1.3,1l-1.4-1.7c0.6-0.4,1.2-0.8,1.7-1.2c0.5-0.4,1-0.8,1.4-1.1
						c0.3-0.3,0.6-0.6,0.8-1c0.2-0.4,0.3-0.8,0.3-1.2v-1.3h-3.4V56.6z M331.6,70.7h9v2h-11.3v-5.8h2.4V70.7z M340.3,67.9h-2.4V55.5
						h2.4V67.9z"/>
					<path class="st1" d="M353.6,66.2v2.5h4.2v2h-15.9v-2h4.4v-2.5H344v-5.7h9.2v-1.8H344v-2h11.6v5.7h-9.2v1.8h9.6v2H353.6z
						 M348.6,68.7h2.7v-2.5h-2.7V68.7z"/>
					<path class="st1" d="M358,67.1h2.9v-5h2.3v4.9c1.2,0,2.3-0.1,3.1-0.1c0.9,0,1.6-0.1,2.3-0.2l0.2,2c-0.5,0.1-1.1,0.1-1.8,0.2
						c-0.7,0-1.4,0.1-2.3,0.1c-0.9,0-1.9,0-3,0.1c-1.1,0-2.4,0-3.8,0V67.1z M367.6,57.1v2.7c0,0.4,0,0.8,0,1.2c0,0.4,0,0.9-0.1,1.3
						c0,0.5-0.1,0.9-0.1,1.4c-0.1,0.5-0.1,0.9-0.2,1.3l-2.3-0.3c0.2-0.8,0.3-1.7,0.3-2.5c0.1-0.8,0.1-1.5,0.1-2.2v-1h-6.5v-2H367.6z
						 M371.9,61.7h2.4v2.1h-2.4v9.1h-2.3V55.5h2.3V61.7z"/>
					<path class="st1" d="M383.1,62.5V64h6.8V66H374V64h6.8v-1.5h-4.5v-6.4h11.4v6.4H383.1z M376.1,67.2h11.7v5.9h-2.3v-3.9h-9.3
						V67.2z M378.6,60.6h6.8V58h-6.8V60.6z"/>
				</g>
			</g>
			<rect x="310.5" y="45" class="st1" width="2.4" height="30.9"/>
		</g>
	</g>
</g>
</svg>
