<?xml version="1.0" encoding="utf-8"?>
<!-- Generator: Adobe Illustrator 25.2.1, SVG Export Plug-In . SVG Version: 6.00 Build 0)  -->
<svg version="1.1" id="레이어_1" xmlns="http://www.w3.org/2000/svg" xmlns:xlink="http://www.w3.org/1999/xlink" x="0px"
	 y="0px" viewBox="0 0 267 53" style="enable-background:new 0 0 267 53;" xml:space="preserve">
<style type="text/css">
	.st0{fill:#67A8B1;}
	.st1{fill:#585757;}
</style>
<g>
	<g>
		<path class="st0" d="M30.3,30l-1.7,0.9c0.8,1.4,1.2,2.7,1.4,3.8c0.1,1,0.1,1.3,0.1,2.1c0,3.9-3.1,7-7,7H10.9V48h12.8
			c4.3-0.3,6.9-2.3,8.4-4.3c1.7-2.2,2.1-4.4,2.1-4.4c1.4-6.9-2-10.3-2-10.3L30.3,30z"/>
		<path class="st0" d="M14.2,21.9l-8.9-4.5l-1.1-0.6L4,16.6l-0.3-0.1l-1.2-0.6c-1-0.5-1.4,0-1.4,0c-0.5,0.5-0.5,1.4-0.5,1.4v0.6v1.7
			v14.3v0.6V37v0.9v1.3h4.3v-1.3v-3.4v-2.6v-2v-3.3v-2.2v-0.2v-0.3v-0.8V23v-0.1v-0.1c0-0.2,0.1-0.5,0.3-0.6c0,0,0.2-0.1,0.7,0.1
			l0.8,0.4l0.2,0.1l0.7,0.4L8,23.5l2.9,1.5l3.8,2l0.5,0.2v-0.6v-3.4v-0.8L14.2,21.9z"/>
		<path class="st0" d="M43.1,15.9c0,0-0.4-0.4-1.3-0.1l-19.3,9.8c0,0-0.3,0.2-0.5,0.2c-0.2,0-0.5-0.2-0.5-0.2l-4-2v3v1.6v0.2
			l2.8,1.5c0.5,0.3,1,0.4,1.7,0.5c0.3,0,0.6,0,0.8-0.1c0.2-0.1,0.4-0.2,0.5-0.3l0.3-0.1l3.1-1.6l2.7-1.4l0,0l5.3-2.7l1.4-0.7
			l0.5-0.3l0.6-0.3l0.1-0.1l0.2-0.1l0.8-0.4c0.5-0.2,0.7-0.1,0.7-0.1c0.2,0.1,0.3,0.4,0.3,0.6v0.1V23v0.2v0.8v0.3v0.2V26v0.6v0.9
			v2.3v2v2.6v3.4v1.3h4.3v-1.3V37v-2.5v-0.6v-6.3V26v-6.3v-0.2v-1.7v-0.6C43.6,17.2,43.6,16.3,43.1,15.9z"/>
		<path class="st0" d="M34.4,15.4c0-0.2,0-0.3,0-0.4s0-0.2,0-0.2C33.9,9.4,29.3,5,23.6,5h-5h-3.4h-1.5c-1.5,0-2.8,1.2-2.8,2.8v1.4
			V11v5.6v3.5v4.8v1.6v3.3V32v1.8v6.2h1.5h0.3c0.4,0,1.2-0.1,1.8-0.3c0.7-0.3,0.7-1.1,0.7-1.2v0v-1.9v-0.2v-2.2V32v-2.2v-0.5v-2.2
			v-4.8v-1.1v-4.6V11V9.2h3.3h4.7c3.7,0,6.8,2.9,6.9,6.6c0,0.3,0,0.6,0,0.9c-0.2,4.3-2.7,6.4-4,7.2l8.2-4.2
			C34.5,18,34.4,16.2,34.4,15.4z"/>
	</g>
	<g>
		<g>
			<g>
				<path class="st1" d="M56.4,18.7v0.6h-1.1v-6.7h1.1v2.3c0.1-0.1,0.2-0.2,0.3-0.3c0.1-0.1,0.2-0.1,0.4-0.2c0.1,0,0.2-0.1,0.4-0.1
					c0.1,0,0.2,0,0.3,0c0.3,0,0.6,0,0.8,0.1c0.2,0.1,0.4,0.2,0.6,0.4c0.2,0.2,0.3,0.4,0.4,0.7c0.1,0.3,0.1,0.5,0.1,0.9v0.9
					c0,0.3,0,0.6-0.1,0.9c-0.1,0.3-0.2,0.5-0.4,0.7c-0.2,0.2-0.4,0.3-0.6,0.4c-0.2,0.1-0.5,0.1-0.8,0.1c-0.3,0-0.6-0.1-0.8-0.2
					C56.7,19,56.5,18.8,56.4,18.7L56.4,18.7z M58.6,16.5c0-0.4-0.1-0.7-0.2-1c-0.2-0.2-0.4-0.3-0.8-0.3c-0.4,0-0.7,0.1-0.8,0.3
					c-0.2,0.2-0.3,0.5-0.3,0.8v1c0,0.1,0,0.2,0.1,0.3c0.1,0.1,0.1,0.2,0.2,0.3c0.1,0.1,0.2,0.2,0.4,0.2c0.1,0.1,0.3,0.1,0.5,0.1
					c0.3,0,0.6-0.1,0.7-0.3c0.2-0.2,0.3-0.5,0.3-0.9V16.5z"/>
				<path class="st1" d="M62.1,19.3c-0.5,0-0.9-0.1-1.2-0.4c-0.3-0.2-0.4-0.6-0.4-1v-0.3c0-0.2,0-0.4,0.1-0.6
					c0.1-0.2,0.2-0.3,0.3-0.4c0.1-0.1,0.3-0.2,0.6-0.3c0.2-0.1,0.5-0.1,0.9-0.1h1.1v-0.2c0-0.3-0.1-0.5-0.2-0.6
					c-0.1-0.1-0.4-0.2-0.7-0.2c-0.5,0-1,0.2-1.4,0.5l-0.5-0.8c0.2-0.2,0.5-0.3,0.8-0.5c0.3-0.1,0.7-0.2,1.1-0.2c0.3,0,0.5,0,0.8,0.1
					c0.2,0.1,0.4,0.2,0.6,0.3c0.2,0.1,0.3,0.3,0.4,0.5c0.1,0.2,0.1,0.4,0.1,0.7v3.4h-1l0-0.6c0,0.1-0.1,0.2-0.2,0.3
					c-0.1,0.1-0.2,0.2-0.3,0.2c-0.1,0.1-0.3,0.1-0.4,0.1C62.4,19.3,62.3,19.3,62.1,19.3z M63.4,17.1h-1.1c-0.3,0-0.5,0.1-0.6,0.2
					c-0.1,0.1-0.2,0.3-0.2,0.5v0.1c0,0.2,0.1,0.3,0.2,0.4c0.1,0.1,0.3,0.1,0.5,0.1c0.5,0,0.8-0.1,1-0.3c0.1-0.1,0.2-0.2,0.2-0.3
					c0-0.1,0-0.3,0-0.4V17.1z"/>
				<path class="st1" d="M68.6,15.4c-0.1,0-0.2-0.1-0.3-0.1c-0.1,0-0.2,0-0.4,0c-0.2,0-0.3,0-0.4,0.1c-0.1,0.1-0.2,0.1-0.3,0.2
					c-0.1,0.1-0.2,0.2-0.2,0.3c-0.1,0.1-0.1,0.3-0.1,0.4v2.9h-1.1v-4.9h1.1v0.7h0c0.1-0.2,0.3-0.4,0.5-0.6c0.2-0.1,0.5-0.2,0.8-0.2
					c0.1,0,0.2,0,0.4,0c0.1,0,0.2,0,0.3,0.1L68.6,15.4z"/>
				<path class="st1" d="M71.3,19.3c-0.5,0-0.9-0.2-1.2-0.5c-0.3-0.3-0.5-0.8-0.5-1.3v-3.1h1.1v2.9c0,0.2,0,0.4,0.1,0.5
					c0,0.1,0.1,0.2,0.2,0.3c0.1,0.1,0.2,0.1,0.3,0.2c0.1,0,0.2,0,0.4,0c0.1,0,0.2,0,0.3-0.1c0.1,0,0.2-0.1,0.3-0.2s0.2-0.2,0.3-0.4
					c0.1-0.1,0.1-0.3,0.1-0.5v-2.8h1.1v4.9h-1.1v-0.6h0c-0.1,0.1-0.2,0.2-0.3,0.3c-0.1,0.1-0.2,0.1-0.3,0.2
					c-0.1,0.1-0.3,0.1-0.4,0.1C71.6,19.3,71.5,19.3,71.3,19.3z"/>
				<path class="st1" d="M77.7,14.3c0.2,0,0.4,0,0.6,0.1c0.2,0.1,0.4,0.2,0.5,0.3c0.2,0.1,0.3,0.3,0.4,0.6c0.1,0.2,0.1,0.5,0.1,0.8
					v3.2h-1.1v-2.9c0-0.7-0.3-1.1-0.9-1.1c-0.1,0-0.2,0-0.3,0c-0.1,0-0.2,0.1-0.3,0.2c-0.1,0.1-0.2,0.2-0.3,0.3
					c-0.1,0.1-0.1,0.3-0.1,0.6v2.9h-1.1v-4.9h1.1v0.6h0c0.2-0.2,0.4-0.4,0.6-0.5C77.1,14.3,77.4,14.3,77.7,14.3z"/>
				<path class="st1" d="M85.8,14.3c0.2,0,0.4,0,0.6,0.1c0.2,0.1,0.4,0.2,0.5,0.3c0.2,0.2,0.3,0.3,0.4,0.6c0.1,0.2,0.1,0.5,0.1,0.8
					v3.1h-1.1v-2.9c0-0.2,0-0.4-0.1-0.5c0-0.1-0.1-0.3-0.2-0.3c-0.1-0.1-0.2-0.1-0.3-0.2c-0.1,0-0.2,0-0.3,0c-0.1,0-0.2,0-0.3,0
					c-0.1,0-0.2,0.1-0.3,0.2c-0.1,0.1-0.2,0.2-0.2,0.3c-0.1,0.1-0.1,0.3-0.1,0.5v2.9h-1.1v-2.9c0-0.2,0-0.4-0.1-0.5
					c0-0.1-0.1-0.2-0.2-0.3c-0.1-0.1-0.2-0.1-0.3-0.2c-0.1,0-0.2,0-0.3,0c-0.3,0-0.5,0.1-0.6,0.2c-0.2,0.2-0.2,0.4-0.2,0.8v3h-1.1
					v-4.9h1.1V15h0c0.1-0.2,0.3-0.4,0.5-0.5c0.2-0.1,0.5-0.2,0.8-0.2c0.3,0,0.6,0.1,0.8,0.2c0.2,0.1,0.4,0.3,0.5,0.5
					c0.2-0.2,0.4-0.4,0.6-0.6C85.2,14.3,85.5,14.3,85.8,14.3z"/>
				<path class="st1" d="M88.8,12.4H90v1.2h-1.2V12.4z M88.8,14.4h1.1v4.9h-1.1V14.4z"/>
			</g>
			<g>
				<g>
					<path class="st1" d="M97.4,12.9v0.9h-3v1.7h2.8v0.9h-2.8v1.9h3v0.9h-4.2v-6.4H97.4z"/>
					<path class="st1" d="M98.7,12.9h1.3l2.2,3.9c0.1,0.1,0.1,0.3,0.2,0.4c0.1,0.2,0.1,0.4,0.2,0.6v-4.9h1.1v6.4h-1.3l-2.2-3.9
						c-0.1-0.1-0.2-0.3-0.2-0.5c-0.1-0.2-0.1-0.3-0.2-0.5v4.8h-1.1V12.9z"/>
					<path class="st1" d="M109.3,12.9v1h-1.9v5.4h-1.1v-5.4h-1.9v-1H109.3z"/>
				</g>
				<g>
					<path class="st1" d="M114.6,19.2c-0.3,0-0.5-0.1-0.8-0.2c-0.2-0.1-0.4-0.2-0.5-0.4V21h-1.1v-6.8h1.1v0.5
						c0.1-0.1,0.2-0.2,0.3-0.3c0.1-0.1,0.2-0.1,0.3-0.2c0.1,0,0.2-0.1,0.4-0.1c0.1,0,0.2,0,0.4,0c0.3,0,0.6,0.1,0.8,0.2
						c0.2,0.1,0.4,0.2,0.6,0.4c0.2,0.2,0.3,0.4,0.4,0.7c0.1,0.3,0.1,0.5,0.1,0.9v0.9c0,0.3,0,0.6-0.1,0.9c-0.1,0.3-0.2,0.5-0.4,0.7
						c-0.2,0.2-0.4,0.3-0.6,0.4C115.2,19.2,114.9,19.2,114.6,19.2z M115.5,16.4c0-0.4-0.1-0.7-0.2-1c-0.2-0.2-0.4-0.3-0.8-0.3
						c-0.4,0-0.7,0.1-0.8,0.3c-0.2,0.2-0.3,0.5-0.3,0.8v1c0,0.1,0,0.2,0.1,0.3c0.1,0.1,0.1,0.2,0.2,0.3c0.1,0.1,0.2,0.2,0.4,0.2
						c0.1,0.1,0.3,0.1,0.5,0.1c0.3,0,0.6-0.1,0.7-0.3c0.2-0.2,0.3-0.5,0.3-0.9V16.4z"/>
					<path class="st1" d="M117.7,12.5h1.1v6.7h-1.1V12.5z"/>
					<path class="st1" d="M121.5,19.2c-0.5,0-0.9-0.1-1.2-0.4c-0.3-0.2-0.4-0.6-0.4-1v-0.3c0-0.2,0-0.4,0.1-0.6
						c0.1-0.2,0.2-0.3,0.3-0.4c0.1-0.1,0.3-0.2,0.6-0.3c0.2-0.1,0.5-0.1,0.9-0.1h1.1V16c0-0.3-0.1-0.5-0.2-0.6
						c-0.1-0.1-0.4-0.2-0.7-0.2c-0.5,0-1,0.2-1.4,0.5l-0.5-0.8c0.2-0.2,0.5-0.3,0.8-0.5c0.3-0.1,0.7-0.2,1.1-0.2
						c0.3,0,0.5,0,0.8,0.1c0.2,0.1,0.4,0.2,0.6,0.3c0.2,0.1,0.3,0.3,0.4,0.5c0.1,0.2,0.1,0.4,0.1,0.7v3.4h-1l0-0.6
						c0,0.1-0.1,0.2-0.2,0.3c-0.1,0.1-0.2,0.2-0.3,0.2c-0.1,0.1-0.3,0.1-0.4,0.1C121.8,19.2,121.6,19.2,121.5,19.2z M122.8,17h-1.1
						c-0.3,0-0.5,0.1-0.6,0.2c-0.1,0.1-0.2,0.3-0.2,0.5v0.1c0,0.2,0.1,0.3,0.2,0.4c0.1,0.1,0.3,0.1,0.5,0.1c0.5,0,0.8-0.1,1-0.3
						c0.1-0.1,0.2-0.2,0.2-0.3c0-0.1,0-0.3,0-0.4V17z"/>
					<path class="st1" d="M126.8,18.3c0.3,0,0.5,0,0.6-0.1c0.1-0.1,0.2-0.2,0.2-0.4v-0.1c0-0.1,0-0.2,0-0.2c0-0.1-0.1-0.1-0.1-0.1
						c-0.1,0-0.2-0.1-0.3-0.1c-0.1,0-0.3-0.1-0.5-0.1c-0.3-0.1-0.5-0.1-0.8-0.2c-0.2-0.1-0.4-0.2-0.5-0.3c-0.1-0.1-0.2-0.3-0.3-0.4
						c-0.1-0.2-0.1-0.4-0.1-0.6v-0.1c0-0.2,0-0.3,0.1-0.5c0.1-0.2,0.2-0.3,0.3-0.4c0.1-0.1,0.3-0.2,0.6-0.3c0.2-0.1,0.5-0.1,0.9-0.1
						c0.3,0,0.6,0,0.9,0.1c0.3,0.1,0.6,0.2,0.9,0.4l-0.5,0.8c-0.2-0.1-0.3-0.2-0.6-0.2c-0.2,0-0.4-0.1-0.6-0.1c-0.3,0-0.6,0-0.7,0.1
						c-0.1,0.1-0.2,0.2-0.2,0.3v0.1c0,0.1,0,0.2,0,0.2c0,0.1,0.1,0.1,0.1,0.1c0.1,0,0.2,0.1,0.3,0.1c0.1,0,0.3,0.1,0.5,0.1
						c0.3,0.1,0.6,0.1,0.8,0.2c0.2,0.1,0.4,0.2,0.6,0.3c0.1,0.1,0.3,0.3,0.3,0.4c0.1,0.2,0.1,0.4,0.1,0.6v0.1c0,0.2,0,0.4-0.1,0.5
						c-0.1,0.2-0.2,0.3-0.4,0.4c-0.2,0.1-0.4,0.2-0.6,0.3c-0.2,0.1-0.5,0.1-0.8,0.1c-0.4,0-0.8-0.1-1.2-0.2
						c-0.4-0.1-0.7-0.3-0.9-0.4l0.5-0.8c0.2,0.1,0.5,0.3,0.7,0.4C126.2,18.2,126.5,18.3,126.8,18.3z"/>
					<path class="st1" d="M130,15.2h-0.8v-0.9h0.8V13h1.1v1.2h1.2v0.9h-1.2v2.6c0,0.2,0,0.3,0.1,0.4c0.1,0.1,0.2,0.1,0.3,0.1
						c0.1,0,0.2,0,0.3,0c0.1,0,0.2-0.1,0.4-0.1l0.2,0.9c-0.1,0-0.2,0.1-0.4,0.1c-0.2,0-0.4,0.1-0.6,0.1c-0.3,0-0.5,0-0.7-0.1
						c-0.2-0.1-0.3-0.2-0.4-0.3c-0.1-0.1-0.2-0.3-0.2-0.5c0-0.2-0.1-0.4-0.1-0.6V15.2z"/>
					<path class="st1" d="M133.3,12.4h1.2v1.2h-1.2V12.4z M133.4,14.3h1.1v4.9h-1.1V14.3z"/>
					<path class="st1" d="M137.8,14.2c0.2,0,0.4,0,0.6,0c0.2,0,0.3,0.1,0.5,0.1c0.1,0.1,0.3,0.1,0.4,0.2c0.1,0.1,0.2,0.1,0.3,0.2
						l-0.5,0.8c-0.2-0.2-0.4-0.3-0.6-0.3c-0.2-0.1-0.4-0.1-0.6-0.1c-0.1,0-0.3,0-0.4,0.1s-0.2,0.1-0.3,0.2c-0.1,0.1-0.2,0.2-0.2,0.4
						c-0.1,0.2-0.1,0.3-0.1,0.6v0.6c0,0.2,0,0.5,0.1,0.6c0.1,0.2,0.2,0.3,0.3,0.4c0.1,0.1,0.2,0.2,0.4,0.2c0.1,0,0.3,0.1,0.4,0.1
						c0.3,0,0.6,0,0.8-0.1c0.2-0.1,0.4-0.2,0.6-0.3l0.5,0.8c-0.2,0.2-0.4,0.3-0.7,0.4c-0.3,0.1-0.7,0.2-1.1,0.2
						c-0.7,0-1.3-0.2-1.6-0.6c-0.4-0.4-0.6-0.9-0.6-1.6v-0.6c0-0.7,0.2-1.2,0.6-1.6C136.5,14.4,137.1,14.2,137.8,14.2z"/>
					<path class="st1" d="M144.3,18.3c0.3,0,0.5,0,0.6-0.1c0.1-0.1,0.2-0.2,0.2-0.4v-0.1c0-0.1,0-0.2,0-0.2c0-0.1-0.1-0.1-0.1-0.1
						s-0.2-0.1-0.3-0.1c-0.1,0-0.3-0.1-0.5-0.1c-0.3-0.1-0.5-0.1-0.8-0.2c-0.2-0.1-0.4-0.2-0.5-0.3c-0.1-0.1-0.2-0.3-0.3-0.4
						c-0.1-0.2-0.1-0.4-0.1-0.6v-0.1c0-0.2,0-0.3,0.1-0.5c0.1-0.2,0.2-0.3,0.3-0.4c0.1-0.1,0.3-0.2,0.6-0.3c0.2-0.1,0.5-0.1,0.9-0.1
						c0.3,0,0.6,0,0.9,0.1c0.3,0.1,0.6,0.2,0.9,0.4l-0.5,0.8c-0.2-0.1-0.3-0.2-0.6-0.2c-0.2,0-0.4-0.1-0.6-0.1c-0.3,0-0.6,0-0.7,0.1
						c-0.1,0.1-0.2,0.2-0.2,0.3v0.1c0,0.1,0,0.2,0,0.2c0,0.1,0.1,0.1,0.1,0.1c0.1,0,0.2,0.1,0.3,0.1c0.1,0,0.3,0.1,0.5,0.1
						c0.3,0.1,0.6,0.1,0.8,0.2c0.2,0.1,0.4,0.2,0.6,0.3c0.1,0.1,0.3,0.3,0.3,0.4c0.1,0.2,0.1,0.4,0.1,0.6v0.1c0,0.2,0,0.4-0.1,0.5
						c-0.1,0.2-0.2,0.3-0.4,0.4c-0.2,0.1-0.4,0.2-0.6,0.3c-0.2,0.1-0.5,0.1-0.8,0.1c-0.4,0-0.8-0.1-1.2-0.2
						c-0.4-0.1-0.7-0.3-0.9-0.4l0.5-0.8c0.2,0.1,0.5,0.3,0.7,0.4C143.7,18.2,144,18.3,144.3,18.3z"/>
					<path class="st1" d="M148.9,19.2c-0.5,0-0.9-0.2-1.2-0.5c-0.3-0.3-0.5-0.8-0.5-1.3v-3.1h1.1v2.9c0,0.2,0,0.4,0.1,0.5
						c0,0.1,0.1,0.2,0.2,0.3c0.1,0.1,0.2,0.1,0.3,0.2c0.1,0,0.2,0,0.4,0c0.1,0,0.2,0,0.3-0.1c0.1,0,0.2-0.1,0.3-0.2
						c0.1-0.1,0.2-0.2,0.3-0.4c0.1-0.1,0.1-0.3,0.1-0.5v-2.8h1.1v4.9h-1.1v-0.6h0c-0.1,0.1-0.2,0.2-0.3,0.3
						c-0.1,0.1-0.2,0.1-0.3,0.2c-0.1,0.1-0.3,0.1-0.4,0.1C149.1,19.2,149,19.2,148.9,19.2z"/>
					<path class="st1" d="M155.5,15.3c-0.1,0-0.2-0.1-0.3-0.1c-0.1,0-0.2,0-0.4,0c-0.2,0-0.3,0-0.4,0.1c-0.1,0.1-0.2,0.1-0.3,0.2
						c-0.1,0.1-0.2,0.2-0.2,0.3c-0.1,0.1-0.1,0.3-0.1,0.4v2.9h-1.1v-4.9h1.1V15h0c0.1-0.2,0.3-0.4,0.5-0.6c0.2-0.1,0.5-0.2,0.8-0.2
						c0.1,0,0.2,0,0.4,0c0.1,0,0.2,0,0.3,0.1L155.5,15.3z"/>
					<path class="st1" d="M159.5,18.5L159.5,18.5c-0.1,0.2-0.3,0.4-0.6,0.5c-0.2,0.1-0.5,0.1-0.8,0.1c-0.6,0-1.1-0.2-1.4-0.5
						c-0.3-0.4-0.5-0.9-0.5-1.5v-0.8c0-0.3,0-0.6,0.1-0.9c0.1-0.3,0.2-0.5,0.4-0.7c0.2-0.2,0.4-0.3,0.6-0.4c0.2-0.1,0.5-0.1,0.8-0.1
						c0.2,0,0.4,0,0.5,0.1c0.1,0,0.3,0.1,0.4,0.1c0.1,0.1,0.2,0.1,0.3,0.2c0.1,0.1,0.1,0.1,0.2,0.2h0v-0.4h1.1v4.8
						c0,0.7-0.2,1.2-0.6,1.5c-0.4,0.3-1,0.5-1.8,0.5c-0.3,0-0.6-0.1-0.9-0.1c-0.3-0.1-0.6-0.2-0.8-0.4l0.5-0.9c0,0,0.1,0.1,0.2,0.1
						c0.1,0,0.2,0.1,0.3,0.1c0.1,0,0.2,0.1,0.3,0.1c0.1,0,0.2,0,0.4,0c0.4,0,0.7-0.1,0.9-0.3c0.2-0.2,0.3-0.4,0.3-0.8V18.5z
						 M157.4,16.9c0,0.4,0.1,0.7,0.3,1c0.2,0.2,0.4,0.3,0.7,0.3c0.2,0,0.3,0,0.5-0.1c0.1-0.1,0.3-0.1,0.4-0.3
						c0.1-0.1,0.2-0.2,0.2-0.4c0.1-0.1,0.1-0.3,0.1-0.5v-0.9c0-0.1,0-0.2-0.1-0.3c0-0.1-0.1-0.2-0.2-0.3c-0.1-0.1-0.2-0.2-0.3-0.2
						c-0.1-0.1-0.3-0.1-0.5-0.1c-0.4,0-0.6,0.1-0.8,0.3c-0.2,0.2-0.3,0.5-0.3,1V16.9z"/>
					<path class="st1" d="M165.9,18.7c-0.2,0.2-0.5,0.3-0.8,0.4c-0.3,0.1-0.7,0.1-1.2,0.1c-0.3,0-0.6,0-0.8-0.1
						c-0.3-0.1-0.5-0.2-0.7-0.4c-0.2-0.2-0.4-0.4-0.5-0.7c-0.1-0.3-0.2-0.7-0.2-1.1v-0.5c0-0.4,0.1-0.7,0.2-1
						c0.1-0.3,0.3-0.5,0.5-0.7c0.2-0.2,0.4-0.3,0.7-0.4s0.6-0.1,0.9-0.1c0.3,0,0.6,0,0.9,0.1c0.3,0.1,0.5,0.2,0.7,0.4
						c0.2,0.2,0.3,0.4,0.4,0.7c0.1,0.3,0.2,0.6,0.2,0.9v0.8h-3.3c0,0.4,0.1,0.7,0.3,0.9c0.2,0.2,0.5,0.3,0.9,0.3
						c0.3,0,0.5,0,0.8-0.1c0.2-0.1,0.5-0.2,0.7-0.3L165.9,18.7z M164.9,16.3V16c0-0.1,0-0.3-0.1-0.4c0-0.1-0.1-0.2-0.2-0.3
						c-0.1-0.1-0.2-0.2-0.3-0.2c-0.1-0.1-0.3-0.1-0.5-0.1c-0.4,0-0.6,0.1-0.8,0.3c-0.2,0.2-0.3,0.4-0.3,0.7v0.2H164.9z"/>
					<path class="st1" d="M169.9,15.3c-0.1,0-0.2-0.1-0.3-0.1c-0.1,0-0.2,0-0.4,0c-0.2,0-0.3,0-0.4,0.1c-0.1,0.1-0.2,0.1-0.3,0.2
						c-0.1,0.1-0.2,0.2-0.2,0.3c-0.1,0.1-0.1,0.3-0.1,0.4v2.9h-1.1v-4.9h1.1V15h0c0.1-0.2,0.3-0.4,0.5-0.6c0.2-0.1,0.5-0.2,0.8-0.2
						c0.1,0,0.2,0,0.4,0c0.1,0,0.2,0,0.3,0.1L169.9,15.3z"/>
					<path class="st1" d="M171.8,14.3l1.1,3.6h0l1.1-3.6h1.2l-2.5,6.9l-1-0.4l0.6-1.6l-1.7-4.9H171.8z"/>
					<path class="st1" d="M180.1,14.2c0.2,0,0.4,0,0.6,0c0.2,0,0.3,0.1,0.5,0.1c0.1,0.1,0.3,0.1,0.4,0.2c0.1,0.1,0.2,0.1,0.3,0.2
						l-0.5,0.8c-0.2-0.2-0.4-0.3-0.6-0.3c-0.2-0.1-0.4-0.1-0.6-0.1c-0.1,0-0.3,0-0.4,0.1c-0.1,0-0.2,0.1-0.3,0.2
						c-0.1,0.1-0.2,0.2-0.2,0.4c-0.1,0.2-0.1,0.3-0.1,0.6v0.6c0,0.2,0,0.5,0.1,0.6c0.1,0.2,0.2,0.3,0.3,0.4c0.1,0.1,0.2,0.2,0.4,0.2
						c0.1,0,0.3,0.1,0.4,0.1c0.3,0,0.6,0,0.8-0.1c0.2-0.1,0.4-0.2,0.6-0.3l0.5,0.8c-0.2,0.2-0.4,0.3-0.7,0.4
						c-0.3,0.1-0.7,0.2-1.1,0.2c-0.7,0-1.3-0.2-1.6-0.6c-0.4-0.4-0.6-0.9-0.6-1.6v-0.6c0-0.7,0.2-1.2,0.6-1.6
						C178.9,14.4,179.5,14.2,180.1,14.2z"/>
					<path class="st1" d="M182.8,12.5h1.1v6.7h-1.1V12.5z"/>
					<path class="st1" d="M185.3,12.4h1.2v1.2h-1.2V12.4z M185.3,14.3h1.1v4.9h-1.1V14.3z"/>
					<path class="st1" d="M190.3,14.2c0.2,0,0.4,0,0.6,0.1c0.2,0.1,0.4,0.2,0.5,0.3c0.2,0.1,0.3,0.3,0.4,0.6
						c0.1,0.2,0.1,0.5,0.1,0.8v3.2h-1.1v-2.9c0-0.7-0.3-1.1-0.9-1.1c-0.1,0-0.2,0-0.3,0c-0.1,0-0.2,0.1-0.3,0.2
						c-0.1,0.1-0.2,0.2-0.3,0.3c-0.1,0.1-0.1,0.3-0.1,0.6v2.9h-1.1v-4.9h1.1v0.6h0c0.2-0.2,0.4-0.4,0.6-0.5
						C189.7,14.2,190,14.2,190.3,14.2z"/>
					<path class="st1" d="M193.3,12.4h1.2v1.2h-1.2V12.4z M193.3,14.3h1.1v4.9h-1.1V14.3z"/>
					<path class="st1" d="M197.7,14.2c0.2,0,0.4,0,0.6,0c0.2,0,0.3,0.1,0.5,0.1c0.1,0.1,0.3,0.1,0.4,0.2c0.1,0.1,0.2,0.1,0.3,0.2
						l-0.5,0.8c-0.2-0.2-0.4-0.3-0.6-0.3c-0.2-0.1-0.4-0.1-0.6-0.1c-0.1,0-0.3,0-0.4,0.1c-0.1,0-0.2,0.1-0.3,0.2
						c-0.1,0.1-0.2,0.2-0.2,0.4c-0.1,0.2-0.1,0.3-0.1,0.6v0.6c0,0.2,0,0.5,0.1,0.6c0.1,0.2,0.2,0.3,0.3,0.4c0.1,0.1,0.2,0.2,0.4,0.2
						c0.1,0,0.3,0.1,0.4,0.1c0.3,0,0.6,0,0.8-0.1c0.2-0.1,0.4-0.2,0.6-0.3l0.5,0.8c-0.2,0.2-0.4,0.3-0.7,0.4
						c-0.3,0.1-0.7,0.2-1.1,0.2c-0.7,0-1.3-0.2-1.6-0.6c-0.4-0.4-0.6-0.9-0.6-1.6v-0.6c0-0.7,0.2-1.2,0.6-1.6
						C196.5,14.4,197,14.2,197.7,14.2z"/>
				</g>
			</g>
		</g>
		<g>
			<g>
				<path class="st1" d="M61.6,35.5h-6.3v-8.7h1.8v2.9h2.8v-2.9h1.8V35.5z M57.1,34h2.8v-2.7h-2.8V34z M65.1,30.4h1.8V32h-1.8v6.9
					h-1.8V25.8h1.8V30.4z"/>
				<path class="st1" d="M79.4,33v1.4h-12V33H79.4z M69.1,32.1v-3.7H76v-0.9h-6.9v-1.4h8.6v3.7h-6.8v0.9h7v1.4H69.1z M70.9,37.1H78
					v1.5h-8.9v-3.5h1.8V37.1z"/>
				<path class="st1" d="M87.5,27v8.5h-6.3V27H87.5z M85.7,28.5h-2.8V34h2.8V28.5z M91.3,38.9h-1.8V25.8h1.8V38.9z"/>
				<g>
					<path class="st1" d="M99.8,35.8c-0.6,0-1.1-0.1-1.5-0.3c-0.4-0.2-0.8-0.4-1-0.8c-0.3-0.3-0.5-0.7-0.6-1.2
						c-0.1-0.5-0.2-1-0.2-1.5v-1.6c0-0.5,0.1-1,0.2-1.5c0.1-0.5,0.3-0.9,0.6-1.2c0.3-0.3,0.6-0.6,1-0.8c0.4-0.2,0.9-0.3,1.5-0.3
						c0.6,0,1.1,0.1,1.5,0.3c0.4,0.2,0.8,0.4,1,0.8c0.3,0.3,0.5,0.7,0.6,1.2c0.1,0.5,0.2,1,0.2,1.5V32c0,0.6-0.1,1.1-0.2,1.5
						c-0.1,0.5-0.3,0.9-0.6,1.2c-0.3,0.3-0.6,0.6-1,0.8C101,35.7,100.4,35.8,99.8,35.8z M99.8,28.3c-0.6,0-1,0.2-1.3,0.6
						c-0.3,0.4-0.4,1-0.4,1.8v1.1c0,0.8,0.1,1.4,0.4,1.8c0.3,0.4,0.7,0.6,1.3,0.6c0.6,0,1-0.2,1.3-0.6c0.3-0.4,0.4-1,0.4-1.8v-1.1
						c0-0.8-0.1-1.4-0.4-1.8C100.9,28.5,100.4,28.3,99.8,28.3z M106.8,38.9H105V25.8h1.8V38.9z"/>
					<path class="st1" d="M115.8,35.5h-6.3v-8.7h1.8v2.9h2.8v-2.9h1.8V35.5z M111.2,34h2.8v-2.7h-2.8V34z M119.6,38.9h-1.8V25.8h1.8
						V38.9z"/>
					<path class="st1" d="M125.2,33.2c-0.5,0-1-0.1-1.4-0.2c-0.4-0.2-0.8-0.4-1.1-0.7s-0.5-0.6-0.7-1c-0.2-0.4-0.2-0.7-0.2-1.1v-0.8
						c0-0.4,0.1-0.8,0.2-1.1c0.2-0.4,0.4-0.7,0.7-1c0.3-0.3,0.6-0.5,1.1-0.7c0.4-0.2,0.9-0.2,1.4-0.2c0.5,0,1,0.1,1.4,0.2
						c0.4,0.2,0.8,0.4,1.1,0.7c0.3,0.3,0.5,0.6,0.7,1c0.2,0.4,0.2,0.7,0.2,1.1v0.8c0,0.4-0.1,0.8-0.2,1.1c-0.2,0.4-0.4,0.7-0.7,1
						c-0.3,0.3-0.6,0.5-1.1,0.7C126.2,33.1,125.7,33.2,125.2,33.2z M125.2,27.9c-0.3,0-0.5,0-0.7,0.1c-0.2,0.1-0.4,0.2-0.5,0.4
						c-0.1,0.2-0.3,0.3-0.3,0.5c-0.1,0.2-0.1,0.4-0.1,0.6v0.5c0,0.2,0,0.4,0.1,0.6c0.1,0.2,0.2,0.4,0.3,0.5c0.1,0.1,0.3,0.3,0.5,0.4
						c0.2,0.1,0.4,0.1,0.7,0.1c0.3,0,0.5,0,0.7-0.1c0.2-0.1,0.4-0.2,0.5-0.4c0.1-0.2,0.3-0.3,0.3-0.5c0.1-0.2,0.1-0.4,0.1-0.6v-0.5
						c0-0.2,0-0.4-0.1-0.6c-0.1-0.2-0.2-0.4-0.3-0.5c-0.1-0.1-0.3-0.3-0.5-0.4C125.7,27.9,125.4,27.9,125.2,27.9z M125.7,37.3h6.7
						v1.5h-8.5v-4.4h1.8V37.3z M132.2,35.2h-1.8v-9.3h1.8V35.2z"/>
					<path class="st1" d="M146.1,34.3v1.5H141v3.3h-1.8v-3.3h-5.1v-1.5H146.1z M141,27.1h4v1.5h-9.8v-1.5h4v-1.5h1.8V27.1z
						 M140.1,33.8c-0.6,0-1.1,0-1.6-0.1c-0.5-0.1-0.9-0.2-1.3-0.4c-0.4-0.2-0.6-0.4-0.8-0.7c-0.2-0.3-0.3-0.6-0.3-0.9v-0.4
						c0-0.3,0.1-0.6,0.3-0.9c0.2-0.3,0.5-0.5,0.8-0.7c0.4-0.2,0.8-0.3,1.3-0.4c0.5-0.1,1-0.1,1.6-0.1c0.6,0,1.1,0,1.6,0.1
						c0.5,0.1,0.9,0.2,1.3,0.4c0.4,0.2,0.6,0.4,0.8,0.7c0.2,0.3,0.3,0.6,0.3,0.9v0.4c0,0.3-0.1,0.6-0.3,0.9
						c-0.2,0.3-0.5,0.5-0.8,0.7c-0.4,0.2-0.8,0.3-1.3,0.4C141.3,33.7,140.7,33.8,140.1,33.8z M140.1,30.5c-0.7,0-1.3,0.1-1.7,0.3
						c-0.4,0.2-0.6,0.4-0.6,0.6v0.2c0,0.2,0.2,0.4,0.6,0.6c0.4,0.2,1,0.3,1.7,0.3c0.7,0,1.3-0.1,1.7-0.3c0.4-0.2,0.6-0.4,0.6-0.6
						v-0.2c0-0.2-0.2-0.4-0.6-0.6C141.5,30.6,140.9,30.5,140.1,30.5z"/>
					<path class="st1" d="M147,34.5h2.2v-3.7h1.8v3.7c0.9,0,1.7,0,2.4-0.1c0.7,0,1.2-0.1,1.7-0.1l0.1,1.5c-0.4,0-0.8,0.1-1.3,0.1
						c-0.5,0-1.1,0.1-1.7,0.1c-0.7,0-1.4,0-2.3,0c-0.8,0-1.8,0-2.9,0V34.5z M154.2,27v2c0,0.3,0,0.6,0,0.9c0,0.3,0,0.7,0,1
						c0,0.3-0.1,0.7-0.1,1c0,0.3-0.1,0.7-0.1,1l-1.7-0.2c0.1-0.6,0.2-1.3,0.2-1.9c0-0.6,0.1-1.1,0.1-1.6v-0.8h-4.9V27H154.2z
						 M157.5,30.5h1.8V32h-1.8v6.8h-1.8V25.8h1.8V30.5z"/>
				</g>
			</g>
			<g>
				<g>
					<path class="st1" d="M219.8,30.6c0,0.1-0.1,0.2-0.3,0.4c-0.1,0.1-0.3,0.3-0.6,0.6c-0.3,0.3-0.7,0.6-1,0.8
						c-0.4,0.3-0.7,0.6-1.1,0.9l-1.1-1.3c0.4-0.3,0.8-0.6,1.1-0.9c0.3-0.3,0.7-0.6,1-0.9c0.3-0.3,0.5-0.6,0.7-0.9
						c0.2-0.3,0.3-0.7,0.3-1.2v-2h1.8v1.9c0,0.2,0,0.4,0,0.6c0,0.2,0.1,0.4,0.1,0.5c0.1,0.2,0.2,0.3,0.3,0.5
						c0.1,0.1,0.3,0.3,0.5,0.4c0.3,0.2,0.6,0.5,0.9,0.7c0.4,0.3,0.7,0.5,1.1,0.8l-1,1.2c-0.3-0.2-0.6-0.4-0.9-0.7
						c-0.3-0.2-0.6-0.4-0.8-0.6c-0.2-0.2-0.5-0.4-0.7-0.5C219.9,30.8,219.8,30.7,219.8,30.6L219.8,30.6z M222.6,39.1
						c-0.6,0-1.1-0.1-1.6-0.2c-0.5-0.1-0.9-0.3-1.3-0.5c-0.4-0.2-0.7-0.5-0.9-0.8c-0.2-0.3-0.3-0.7-0.3-1.1V36
						c0-0.4,0.1-0.7,0.3-1.1c0.2-0.3,0.5-0.6,0.9-0.8c0.4-0.2,0.8-0.4,1.3-0.5c0.5-0.1,1-0.2,1.6-0.2c0.6,0,1.1,0.1,1.6,0.2
						c0.5,0.1,0.9,0.3,1.3,0.5c0.4,0.2,0.7,0.5,0.9,0.8c0.2,0.3,0.3,0.7,0.3,1.1v0.6c0,0.4-0.1,0.7-0.3,1.1
						c-0.2,0.3-0.5,0.6-0.9,0.8c-0.4,0.2-0.8,0.4-1.3,0.5C223.7,39,223.2,39.1,222.6,39.1z M222.6,34.9c-0.3,0-0.6,0-0.9,0.1
						c-0.3,0.1-0.5,0.2-0.7,0.3c-0.2,0.1-0.4,0.2-0.5,0.4c-0.1,0.1-0.2,0.3-0.2,0.5v0.4c0,0.2,0.1,0.3,0.2,0.5
						c0.1,0.1,0.3,0.3,0.5,0.4c0.2,0.1,0.5,0.2,0.7,0.3c0.3,0.1,0.6,0.1,0.9,0.1c0.3,0,0.6,0,0.9-0.1c0.3-0.1,0.5-0.2,0.7-0.3
						c0.2-0.1,0.4-0.2,0.5-0.4c0.1-0.1,0.2-0.3,0.2-0.5v-0.4c0-0.2-0.1-0.3-0.2-0.5c-0.1-0.1-0.3-0.3-0.5-0.4
						c-0.2-0.1-0.5-0.2-0.7-0.3C223.2,34.9,222.9,34.9,222.6,34.9z M224.9,29.8h-2.3v-1.5h2.3v-2.6h1.8v7.7h-1.8V29.8z"/>
					<path class="st1" d="M233.2,27h2.9v1.5h-7.5V27h2.9v-1.4h1.8V27z M232.4,33.8c-0.5,0-0.9-0.1-1.3-0.2c-0.4-0.1-0.7-0.3-1-0.5
						c-0.3-0.2-0.5-0.4-0.6-0.7c-0.1-0.3-0.2-0.6-0.2-0.9v-0.4c0-0.3,0.1-0.6,0.2-0.9c0.1-0.3,0.3-0.5,0.6-0.7
						c0.3-0.2,0.6-0.4,1-0.5c0.4-0.1,0.8-0.2,1.3-0.2c0.5,0,0.9,0.1,1.3,0.2c0.4,0.1,0.7,0.3,1,0.5c0.3,0.2,0.5,0.4,0.6,0.7
						c0.1,0.3,0.2,0.6,0.2,0.9v0.4c0,0.3-0.1,0.6-0.2,0.9c-0.1,0.3-0.3,0.5-0.6,0.7c-0.3,0.2-0.6,0.4-1,0.5
						C233.3,33.7,232.9,33.8,232.4,33.8z M232.4,30.3c-0.5,0-0.8,0.1-1.1,0.3c-0.2,0.2-0.4,0.4-0.4,0.6v0.3c0,0.2,0.1,0.4,0.4,0.6
						c0.2,0.2,0.6,0.3,1.1,0.3c0.5,0,0.8-0.1,1.1-0.3c0.2-0.2,0.4-0.4,0.4-0.6v-0.3c0-0.2-0.1-0.4-0.4-0.6
						C233.2,30.4,232.8,30.3,232.4,30.3z M235.4,39.2c-0.6,0-1.2-0.1-1.7-0.2c-0.5-0.1-0.9-0.3-1.3-0.5c-0.4-0.2-0.6-0.4-0.8-0.7
						c-0.2-0.3-0.3-0.6-0.3-0.9v-0.5c0-0.3,0.1-0.7,0.3-0.9c0.2-0.3,0.5-0.5,0.8-0.7c0.4-0.2,0.8-0.3,1.3-0.5
						c0.5-0.1,1.1-0.2,1.7-0.2c0.6,0,1.2,0.1,1.7,0.2c0.5,0.1,0.9,0.3,1.3,0.5c0.4,0.2,0.6,0.4,0.8,0.7c0.2,0.3,0.3,0.6,0.3,0.9v0.5
						c0,0.3-0.1,0.7-0.3,0.9c-0.2,0.3-0.5,0.5-0.8,0.7c-0.4,0.2-0.8,0.3-1.3,0.5C236.5,39.1,236,39.2,235.4,39.2z M235.4,35.6
						c-0.3,0-0.7,0-1,0.1c-0.3,0.1-0.5,0.1-0.8,0.2c-0.2,0.1-0.4,0.2-0.5,0.3c-0.1,0.1-0.2,0.2-0.2,0.4v0.2c0,0.1,0.1,0.3,0.2,0.4
						c0.1,0.1,0.3,0.2,0.5,0.3c0.2,0.1,0.5,0.2,0.8,0.2c0.3,0.1,0.6,0.1,1,0.1c0.3,0,0.7,0,1-0.1c0.3-0.1,0.5-0.1,0.8-0.2
						c0.2-0.1,0.4-0.2,0.5-0.3c0.1-0.1,0.2-0.2,0.2-0.4v-0.2c0-0.1-0.1-0.3-0.2-0.4c-0.1-0.1-0.3-0.2-0.5-0.3
						c-0.2-0.1-0.5-0.2-0.8-0.2C236,35.6,235.7,35.6,235.4,35.6z M239.4,33.9h-1.8v-1.1h-1.6v-1.5h1.6v-1h-1.6v-1.5h1.6v-3.2h1.8
						V33.9z"/>
					<path class="st1" d="M241.6,34.8c0.6,0,1.2,0,1.7,0c0.5,0,1,0,1.5,0v-1.9c-0.4-0.1-0.8-0.2-1.1-0.4c-0.3-0.2-0.6-0.4-0.8-0.7
						c-0.2-0.3-0.4-0.5-0.5-0.8c-0.1-0.3-0.2-0.6-0.2-1v-0.6c0-0.4,0.1-0.8,0.3-1.1c0.2-0.4,0.4-0.7,0.7-0.9
						c0.3-0.3,0.7-0.5,1.1-0.6c0.4-0.2,0.9-0.2,1.4-0.2c0.5,0,1,0.1,1.4,0.2c0.4,0.2,0.8,0.4,1.1,0.6c0.3,0.3,0.5,0.6,0.7,0.9
						c0.2,0.4,0.3,0.7,0.3,1.1V30c0,0.3-0.1,0.7-0.2,1c-0.1,0.3-0.3,0.6-0.5,0.8c-0.2,0.3-0.5,0.5-0.8,0.6c-0.3,0.2-0.7,0.3-1.1,0.4
						v1.9c0.7,0,1.4,0,1.9-0.1c0.6,0,1.1-0.1,1.5-0.1l0.1,1.5c-0.4,0-0.9,0.1-1.4,0.1c-0.5,0-1.1,0.1-1.8,0.1c-0.7,0-1.5,0-2.3,0
						c-0.9,0-1.8,0-2.9,0V34.8z M245.7,28c-0.3,0-0.5,0-0.8,0.1c-0.2,0.1-0.4,0.2-0.6,0.3c-0.2,0.1-0.3,0.3-0.4,0.5
						c-0.1,0.2-0.1,0.4-0.1,0.6v0.4c0,0.2,0,0.4,0.1,0.6c0.1,0.2,0.2,0.3,0.4,0.5c0.2,0.1,0.4,0.3,0.6,0.3c0.2,0.1,0.5,0.1,0.8,0.1
						c0.3,0,0.5,0,0.8-0.1c0.2-0.1,0.4-0.2,0.6-0.3c0.2-0.1,0.3-0.3,0.4-0.5c0.1-0.2,0.1-0.4,0.1-0.6v-0.4c0-0.2,0-0.4-0.1-0.6
						c-0.1-0.2-0.2-0.3-0.4-0.5c-0.2-0.1-0.4-0.3-0.6-0.3C246.2,28.1,245.9,28,245.7,28z M252.4,38.9h-1.8V25.8h1.8V38.9z"/>
					<path class="st1" d="M254.2,34.5h2.2v-3.7h1.8v3.7c0.9,0,1.7,0,2.4-0.1c0.7,0,1.2-0.1,1.7-0.1l0.1,1.5c-0.4,0-0.8,0.1-1.3,0.1
						c-0.5,0-1.1,0.1-1.7,0.1c-0.7,0-1.4,0-2.3,0c-0.8,0-1.8,0-2.9,0V34.5z M261.4,27v2c0,0.3,0,0.6,0,0.9c0,0.3,0,0.7,0,1
						c0,0.3-0.1,0.7-0.1,1c0,0.3-0.1,0.7-0.1,1l-1.7-0.2c0.1-0.6,0.2-1.3,0.2-1.9c0-0.6,0.1-1.1,0.1-1.6v-0.8h-4.9V27H261.4z
						 M264.7,30.5h1.8V32h-1.8v6.8h-1.8V25.8h1.8V30.5z"/>
				</g>
				<g>
					<path class="st1" d="M175.3,30.3h4.8v1.1h-1.7v0.7c0,0.1,0,0.2,0,0.3c0,0.1,0.1,0.2,0.1,0.3c0,0.1,0.1,0.2,0.2,0.3
						c0.1,0.1,0.2,0.2,0.3,0.3c0.2,0.2,0.4,0.3,0.7,0.5c0.2,0.2,0.5,0.3,0.7,0.5l-0.7,0.9c-0.2-0.1-0.4-0.3-0.6-0.4
						c-0.2-0.1-0.4-0.3-0.6-0.4c-0.2-0.2-0.4-0.3-0.5-0.4c-0.1-0.1-0.2-0.2-0.2-0.2h0c0,0.1-0.1,0.2-0.2,0.3
						c-0.1,0.1-0.3,0.3-0.6,0.5c-0.2,0.2-0.4,0.3-0.7,0.5c-0.2,0.2-0.5,0.3-0.7,0.5l-0.7-0.9c0.3-0.2,0.6-0.4,0.9-0.7
						c0.3-0.2,0.5-0.4,0.8-0.6c0.2-0.2,0.3-0.3,0.4-0.5c0.1-0.2,0.1-0.4,0.1-0.7v-0.7h-1.8V30.3z M177.9,37.9h4.8V39h-6.1v-3.1h1.3
						V37.9z M182.5,36.4h-1.3v-6.6h1.3V36.4z"/>
					<path class="st1" d="M189.7,35.5v1.4h2.3v1.1h-8.5v-1.1h2.4v-1.4h-1.2v-3.1h4.9v-0.9h-5v-1.1h6.2v3.1h-4.9v0.9h5.2v1.1H189.7z
						 M187,36.8h1.4v-1.4H187V36.8z"/>
					<path class="st1" d="M192,35.9h1.6v-2.7h1.3v2.6c0.7,0,1.2,0,1.7-0.1c0.5,0,0.9-0.1,1.2-0.1l0.1,1.1c-0.3,0-0.6,0.1-1,0.1
						c-0.4,0-0.8,0-1.2,0.1c-0.5,0-1,0-1.6,0c-0.6,0-1.3,0-2,0V35.9z M197.2,30.6v1.5c0,0.2,0,0.4,0,0.7c0,0.2,0,0.5,0,0.7
						c0,0.2,0,0.5-0.1,0.7c0,0.2-0.1,0.5-0.1,0.7l-1.2-0.2c0.1-0.5,0.1-0.9,0.2-1.3c0-0.4,0-0.8,0-1.2v-0.5h-3.5v-1.1H197.2z
						 M199.5,33.1h1.3v1.1h-1.3v4.9h-1.3v-9.3h1.3V33.1z"/>
					<path class="st1" d="M205.5,33.5v0.8h3.6v1h-8.5v-1h3.6v-0.8h-2.4V30h6.1v3.4H205.5z M201.7,36h6.3v3.1h-1.3v-2.1h-5V36z
						 M203.1,32.4h3.6V31h-3.6V32.4z"/>
				</g>
			</g>
			<rect x="166.5" y="24.1" class="st1" width="1.3" height="16.6"/>
		</g>
	</g>
</g>
</svg>
