<?xml version="1.0" encoding="utf-8"?>
<!-- Generator: Adobe Illustrator 25.2.1, SVG Export Plug-In . SVG Version: 6.00 Build 0)  -->
<svg version="1.1" id="레이어_1" xmlns="http://www.w3.org/2000/svg" xmlns:xlink="http://www.w3.org/1999/xlink" x="0px"
	 y="0px" viewBox="0 0 34 29" style="enable-background:new 0 0 34 29;" xml:space="preserve">
<style type="text/css">
	.st0{fill:#4981BD;}
</style>
<g>
	<g>
		<path class="st0" d="M8.4,12.8c0,0.7-0.6,1.3-1.3,1.3c-0.7,0-1.3-0.6-1.3-1.3c0-0.7,0.6-1.3,1.3-1.3C7.8,11.5,8.4,12.1,8.4,12.8z"
			/>
		<path class="st0" d="M19,11.5c-0.7,0-1.3,0.6-1.3,1.3c0,0.7,0.6,1.3,1.3,1.3c0.7,0,1.3-0.6,1.3-1.3C20.4,12.1,19.8,11.5,19,11.5z
			 M19,11.5c-0.7,0-1.3,0.6-1.3,1.3c0,0.7,0.6,1.3,1.3,1.3c0.7,0,1.3-0.6,1.3-1.3C20.4,12.1,19.8,11.5,19,11.5z M28.7,0.2H5.3
			c-3,0-5.4,2.4-5.4,5.4v12.8c0,3,2.4,5.4,5.4,5.4h8l2.7,4.5c0,0,0,0.1,0.1,0.1c0.2,0.3,0.5,0.5,0.8,0.5c0.3,0,0.6-0.2,0.8-0.5
			c0.1-0.1,0.1-0.1,0.1-0.1l2.7-4.5h8c3,0,5.4-2.4,5.4-5.4V5.6C34.1,2.6,31.6,0.2,28.7,0.2z M7.5,16c-1.3,0-1.8-0.9-1.8-0.9v0.7H3.7
			V7.1h2.1v3.3c0.8-0.8,1.8-0.8,1.8-0.8c2.8,0,2.9,3.2,2.9,3.2C10.5,15.9,7.5,16,7.5,16z M14.1,10.1v5.6h-2v-5.1c0-1.8-1-1.7-1-1.7
			v-2C14.2,6.9,14.1,10.1,14.1,10.1z M22.6,12.8C22.6,16,19,16,19,16c-3.6,0-3.4-3.2-3.4-3.2c0-3.2,3.4-3.2,3.4-3.2
			C22.7,9.6,22.6,12.8,22.6,12.8z M30.3,15.7c0,3.2-2.9,3.3-3,3.3h-0.8v-1.8H27c1.5,0,1.3-1.5,1.3-1.5v-0.5
			c-0.7,0.8-1.8,0.8-1.8,0.8c-2.9,0-2.9-3.1-2.9-3.1c0-3.3,3-3.2,3-3.2c1.2,0,1.8,0.8,1.8,0.8V9.8h2V15.7z M27.1,11.5
			c-0.7,0-1.3,0.6-1.3,1.3c0,0.7,0.6,1.3,1.3,1.3c0.7,0,1.3-0.6,1.3-1.3C28.4,12.1,27.8,11.5,27.1,11.5z M19,11.5
			c-0.7,0-1.3,0.6-1.3,1.3c0,0.7,0.6,1.3,1.3,1.3c0.7,0,1.3-0.6,1.3-1.3C20.4,12.1,19.8,11.5,19,11.5z"/>
	</g>
</g>
</svg>
