<?xml version="1.0" encoding="utf-8"?>
<!-- Generator: Adobe Illustrator 25.2.1, SVG Export Plug-In . SVG Version: 6.00 Build 0)  -->
<svg version="1.1" id="레이어_1" xmlns="http://www.w3.org/2000/svg" xmlns:xlink="http://www.w3.org/1999/xlink" x="0px"
	 y="0px" viewBox="0 0 30 30" style="enable-background:new 0 0 30 30;" xml:space="preserve">
<style type="text/css">
	.st0{fill:#4981BD;}
</style>
<g>
	<g>
		<path class="st0" d="M21.3,0H8.7C3.9,0,0,3.9,0,8.7v12.7C0,26.1,3.9,30,8.7,30h12.7c4.8,0,8.7-3.9,8.7-8.7V8.7
			C30,3.9,26.1,0,21.3,0 M27.2,21.6c0,3.2-2.6,5.7-5.7,5.7h-13c-3.2,0-5.7-2.6-5.7-5.7v-13c0-3.2,2.6-5.7,5.7-5.7h13
			c3.2,0,5.7,2.6,5.7,5.7V21.6z"/>
		<path class="st0" d="M15,7.3c-4.3,0-7.8,3.5-7.8,7.8c0,4.3,3.5,7.8,7.8,7.8s7.8-3.5,7.8-7.8C22.8,10.8,19.3,7.3,15,7.3 M15,20.1
			c-2.8,0-5-2.3-5-5c0-2.8,2.3-5,5-5c2.8,0,5,2.3,5,5C20,17.9,17.8,20.1,15,20.1"/>
		<path class="st0" d="M23,5.2c-1,0-1.8,0.8-1.8,1.8S22,8.8,23,8.8S24.9,8,24.9,7S24,5.2,23,5.2"/>
	</g>
</g>
</svg>
