<?xml version="1.0" encoding="utf-8"?>
<!-- Generator: Adobe Illustrator 25.2.1, SVG Export Plug-In . SVG Version: 6.00 Build 0)  -->
<svg version="1.1" id="레이어_1" xmlns="http://www.w3.org/2000/svg" xmlns:xlink="http://www.w3.org/1999/xlink" x="0px"
	 y="0px" viewBox="0 0 27 25" style="enable-background:new 0 0 27 25;" xml:space="preserve">
<style type="text/css">
	.st0{fill:#4981BD;}
</style>
<path class="st0" d="M26.9,23.6c0,0.4,0,0.8-0.1,1.1c-3.1-0.1-6.1,0-9.2,0c-1.6-2.7-3.6-5.2-5.3-7.9c-1-1.4-1.9-2.8-2.9-4.2
	c-0.1,4,0,8.1-0.1,12.1c-3,0-6.1,0-9.2,0c0-8.1,0-16.3,0-24.4c3.1,0,6.1-0.1,9.2,0c2.9,4,5.6,8.1,8.4,12.1c0-4.1,0-8.1,0-12.2
	c3,0,6.1,0,9.1,0C26.9,8,26.8,15.8,26.9,23.6z"/>
</svg>
