<?xml version="1.0" encoding="utf-8"?>
<!-- Generator: Adobe Illustrator 25.2.1, SVG Export Plug-In . SVG Version: 6.00 Build 0)  -->
<svg version="1.1" id="레이어_1" xmlns="http://www.w3.org/2000/svg" xmlns:xlink="http://www.w3.org/1999/xlink" x="0px"
	 y="0px" viewBox="0 0 33 23" style="enable-background:new 0 0 33 23;" xml:space="preserve">
<style type="text/css">
	.st0{fill:#4981BD;}
</style>
<g>
	<g>
		<path class="st0" d="M32.1,4.3c-0.6-2.5-1.8-3.4-3.9-3.7c-1.2-0.2-7-0.4-11.7-0.4C11.9,0.1,6,0.4,4.8,0.5C2.7,0.9,1.6,1.8,0.9,4.3
			c-0.2,0.8-0.5,5.3-0.5,7v0.4c0,1.7,0.3,6.2,0.5,7c0.6,2.5,1.8,3.4,3.9,3.7c1.2,0.2,7,0.4,11.7,0.4h0c4.6,0,10.5-0.2,11.7-0.4
			c2.1-0.3,3.3-1.3,3.9-3.7c0.2-0.8,0.5-5.3,0.5-7v-0.4C32.5,9.6,32.3,5.1,32.1,4.3z M11.5,16.7V6.3l10.8,5.1L11.5,16.7z"/>
	</g>
</g>
</svg>
